<svg width="31" height="30" viewBox="0 0 31 30" fill="none" xmlns="http://www.w3.org/2000/svg">
<path fill-rule="evenodd" clip-rule="evenodd" d="M26.2685 12.2789C26.5471 12.2789 26.8144 12.3851 27.0115 12.5741C27.2085 12.7631 27.3192 13.0195 27.3192 13.2868L27.3192 26.663C27.3192 27.4649 26.9871 28.2339 26.3959 28.8009C25.8048 29.368 25.003 29.6865 24.167 29.6865L3.15222 29.6865C2.3162 29.6865 1.51442 29.368 0.923263 28.8009C0.332108 28.2339 0 27.4649 0 26.663L0 6.50595C0 5.70405 0.332108 4.935 0.923263 4.36797C1.51442 3.80095 2.3162 3.48239 3.15222 3.48239L17.0976 3.48239C17.3763 3.48239 17.6436 3.58858 17.8406 3.77759C18.0377 3.96659 18.1484 4.22295 18.1484 4.49025C18.1484 4.75754 18.0377 5.0139 17.8406 5.2029C17.6436 5.39191 17.3763 5.4981 17.0976 5.4981L3.15222 5.4981C2.87354 5.4981 2.60628 5.60428 2.40923 5.79329C2.21218 5.9823 2.10148 6.23865 2.10148 6.50595L2.10148 26.663C2.10148 26.9303 2.21218 27.1866 2.40923 27.3756C2.60628 27.5646 2.87354 27.6708 3.15222 27.6708L24.167 27.6708C24.4457 27.6708 24.7129 27.5646 24.91 27.3756C25.107 27.1866 25.2177 26.9303 25.2177 26.663L25.2177 13.2868C25.2177 13.0195 25.3284 12.7631 25.5255 12.5741C25.7225 12.3851 25.9898 12.2789 26.2685 12.2789Z" fill="white"/>
<path fill-rule="evenodd" clip-rule="evenodd" d="M30.1874 1.36593C30.4029 1.37299 30.6068 1.45574 30.7542 1.59596C30.9015 1.73617 30.9803 1.92238 30.9732 2.1136L30.7051 9.32387C30.698 9.5151 30.6056 9.69569 30.4482 9.82591C30.2908 9.95613 30.0813 10.0253 29.8658 10.0182C29.6503 10.0112 29.4464 9.92844 29.299 9.78822C29.1517 9.648 29.0729 9.4618 29.08 9.27057L29.2834 3.80086L15.6084 15.1151C15.4508 15.2454 15.241 15.3147 15.0252 15.3076C14.8094 15.3006 14.6053 15.2177 14.4578 15.0773C14.3103 14.9369 14.2314 14.7505 14.2385 14.559C14.2456 14.3675 14.3381 14.1867 14.4958 14.0563L28.1723 2.74364L22.0082 2.54146C21.7927 2.53439 21.5889 2.45165 21.4415 2.31143C21.2942 2.17122 21.2154 1.98501 21.2225 1.79378C21.2296 1.60255 21.322 1.42197 21.4794 1.29175C21.6369 1.16153 21.8464 1.09234 22.0619 1.09941L30.1874 1.36593Z" fill="white"/>
</svg>
