<svg width="34" height="30" viewBox="0 0 34 30" fill="none" xmlns="http://www.w3.org/2000/svg">
<path d="M30.8977 8.54915C31.0116 6.00364 30.6697 3.53411 29.8085 1.1279C29.6946 0.823958 29.5553 0.709979 29.2386 0.798628C28.5294 1.01392 27.7949 1.17856 27.0984 1.43184C25.1734 2.12838 23.4131 3.14152 21.7034 4.24331C21.5261 4.35729 21.2602 4.43327 21.0449 4.39528C18.2461 3.90137 15.4346 3.9267 12.6231 4.35728C12.3445 4.39528 11.9899 4.33195 11.762 4.19265C9.77369 2.90089 7.74741 1.63447 5.42985 1.02658C3.51755 0.520013 3.91014 0.418702 3.36557 2.15371C2.7197 4.23064 2.46641 6.38356 2.60572 8.56182C2.61838 8.71379 2.5044 8.90375 2.40309 9.04306C1.56725 10.0435 0.921373 11.1453 0.528781 12.3864C-0.231074 14.7926 -0.0791031 17.2242 0.402139 19.643C1.35196 24.3921 4.55601 27.7228 9.29245 28.546C11.7366 28.9766 14.2568 29.0146 16.5491 29.2046C19.1072 29.0146 21.4755 29.0019 23.7804 28.6347C27.8076 27.9888 30.847 25.8485 32.3667 21.9606C32.8986 20.6055 33.1899 19.1238 33.3672 17.6801C33.7598 14.4887 33.2152 11.4999 31.037 8.97974C30.961 8.87842 30.8977 8.70113 30.8977 8.54915ZM28.8207 22.2139C28.4028 24.1895 27.2504 25.5446 25.3254 26.2411C23.4637 26.925 21.5388 27.2036 19.5758 27.3302C18.626 27.3936 17.6762 27.3429 16.7264 27.3429C14.1682 27.3936 11.61 27.2923 9.14048 26.5577C6.03773 25.6332 4.64466 23.7843 4.55601 20.5422C4.51802 19.3898 4.64466 18.2753 5.18923 17.2368C6.26569 15.1472 8.12733 14.4127 10.3309 14.3747C11.534 14.362 12.7498 14.4634 13.9656 14.5773C16.5111 14.8053 19.0313 14.5647 21.5641 14.4254C22.6786 14.362 23.8183 14.3367 24.9075 14.5267C27.2504 14.9319 29.0234 17.2622 29.0613 19.8837C29.0613 20.6562 28.9727 21.454 28.8207 22.2139Z" fill="white"/>
<path d="M10.0891 17.231C9.44509 17.9017 9.22263 18.7488 9.1875 19.5018C9.1875 20.6313 9.51534 21.5373 10.0891 22.1256C10.8853 22.9374 11.9742 22.9139 12.7352 22.0903C13.8827 20.8431 13.871 18.5017 12.7352 17.2663C11.9742 16.431 10.8618 16.4192 10.0891 17.231Z" fill="white"/>
<path d="M21.6909 17.1349C20.3791 18.348 20.3791 21.0216 21.6909 22.2229C22.4522 22.9178 23.4829 22.8825 24.1974 22.1405C24.8533 21.4574 25.0875 20.5976 25.111 19.6671C25.0875 18.7367 24.8533 17.8887 24.1857 17.2056C23.4712 16.4636 22.4405 16.4401 21.6909 17.1349Z" fill="white"/>
</svg>
