<svg width="58" height="25" viewBox="0 0 58 25" fill="none" xmlns="http://www.w3.org/2000/svg">
<rect x="0.578125" y="0.0517578" width="57.3343" height="24.359" rx="2" fill="#70D9F3"/>
<path d="M17.9314 11.7432H19.5525C19.9887 11.7432 20.3239 11.6357 20.5583 11.4209C20.7927 11.2061 20.9099 10.8968 20.9099 10.4932C20.9099 10.1351 20.7894 9.84863 20.5485 9.63379C20.3077 9.41243 19.9659 9.30176 19.5232 9.30176H17.9314V11.7432ZM16.6423 15.9229V8.19824H19.7673C20.5616 8.19824 21.1703 8.40658 21.5935 8.82324C22.0232 9.23991 22.238 9.76074 22.238 10.3857C22.238 10.9131 22.1208 11.3428 21.8864 11.6748C21.6521 12.0068 21.3819 12.2314 21.0759 12.3486C21.3233 12.5179 21.4991 12.6969 21.6032 12.8857C21.7074 13.0745 21.7953 13.361 21.8669 13.7451C22.0232 14.5133 22.3031 15.2393 22.7067 15.9229H21.2712C20.9522 15.3825 20.7015 14.6891 20.5192 13.8428C20.4476 13.5107 20.3402 13.2601 20.197 13.0908C20.0603 12.9215 19.8422 12.8369 19.5427 12.8369H17.9314V15.9229H16.6423ZM23.1364 13.0811C23.1364 12.1761 23.3838 11.4567 23.8786 10.9229C24.3799 10.3825 25.0082 10.1123 25.7634 10.1123C26.5056 10.1123 27.1176 10.3825 27.5993 10.9229C28.0811 11.4632 28.322 12.1663 28.322 13.0322C28.322 13.2015 28.3122 13.3675 28.2927 13.5303H24.3864C24.3864 13.96 24.5134 14.3311 24.7673 14.6436C25.0277 14.9495 25.3825 15.1025 25.8317 15.1025C26.1442 15.1025 26.4177 15.0277 26.6521 14.8779C26.8929 14.7217 27.0752 14.5231 27.1989 14.2822L28.2341 14.6338C28.0518 15.0505 27.7556 15.3988 27.3454 15.6787C26.9353 15.9587 26.4242 16.0986 25.8122 16.0986C25.0245 16.0986 24.3799 15.8252 23.8786 15.2783C23.3838 14.7314 23.1364 13.999 23.1364 13.0811ZM24.406 12.6611H27.0622C27.0622 12.2314 26.9483 11.8669 26.7204 11.5674C26.4926 11.2614 26.1735 11.1084 25.7634 11.1084C25.3532 11.1084 25.0245 11.2646 24.7771 11.5771C24.5362 11.8831 24.4125 12.2445 24.406 12.6611ZM30.2458 14.3408C30.2458 14.5492 30.3272 14.7249 30.49 14.8682C30.6592 15.0049 30.8806 15.0732 31.154 15.0732C31.5446 15.0732 31.8767 14.943 32.1501 14.6826C32.4301 14.4222 32.57 14.0804 32.57 13.6572V13.1396C32.2706 13.2113 31.9092 13.2796 31.486 13.3447C30.6592 13.4749 30.2458 13.807 30.2458 14.3408ZM28.9958 14.4482C28.9958 13.387 29.7836 12.7393 31.3591 12.5049C31.932 12.4202 32.3357 12.3421 32.57 12.2705V11.9678C32.57 11.6943 32.4724 11.4795 32.2771 11.3232C32.0817 11.167 31.8213 11.0889 31.4958 11.0889C30.8773 11.0889 30.3435 11.3428 29.8942 11.8506L29.1423 11.2061C29.4353 10.861 29.7836 10.5941 30.1872 10.4053C30.5974 10.21 31.0271 10.1123 31.4763 10.1123C32.3161 10.1123 32.9151 10.3174 33.2732 10.7275C33.6312 11.1312 33.8103 11.6976 33.8103 12.4268V15.9229H32.6091V15.2197C32.4919 15.4606 32.2868 15.6689 31.9939 15.8447C31.7074 16.014 31.3689 16.0986 30.9782 16.0986C30.3597 16.0986 29.8747 15.9456 29.5232 15.6396C29.1716 15.3337 28.9958 14.9365 28.9958 14.4482ZM34.7575 13.1104C34.7575 12.2054 34.9984 11.4795 35.4802 10.9326C35.9685 10.3857 36.5967 10.1123 37.365 10.1123C37.9248 10.1123 38.3969 10.2816 38.781 10.6201C39.1651 10.9587 39.406 11.346 39.5036 11.7822L38.4489 12.0752C38.3708 11.8278 38.2373 11.6162 38.0485 11.4404C37.8597 11.2581 37.6351 11.167 37.3747 11.167C36.9515 11.167 36.6195 11.3525 36.3786 11.7236C36.1442 12.0947 36.0271 12.557 36.0271 13.1104C36.0271 13.7223 36.154 14.1976 36.4079 14.5361C36.6618 14.8747 36.9841 15.0439 37.3747 15.0439C37.6612 15.0439 37.9118 14.9463 38.1267 14.751C38.348 14.5492 38.501 14.3213 38.5857 14.0674L39.6403 14.3701C39.5166 14.8258 39.2465 15.2295 38.8298 15.5811C38.4131 15.9261 37.9248 16.0986 37.365 16.0986C36.5967 16.0986 35.9685 15.8285 35.4802 15.2881C34.9984 14.7412 34.7575 14.0153 34.7575 13.1104ZM40.0017 11.3428V10.2881H40.8708V8.61816H42.1013V10.2881H43.3903V11.3428H42.1013V14.1162C42.1013 14.3831 42.1534 14.5752 42.2575 14.6924C42.3682 14.8096 42.5342 14.8682 42.7556 14.8682H43.4001V15.9229H42.5993C41.447 15.9229 40.8708 15.3499 40.8708 14.2041V11.3428H40.0017Z" fill="black"/>
</svg>
