<svg width="56" height="25" viewBox="0 0 56 25" fill="none" xmlns="http://www.w3.org/2000/svg">
<rect x="0.773438" y="0.0517578" width="54.419" height="24.359" rx="2" fill="#3168F0"/>
<path d="M18.5217 12.0557C18.5217 10.8187 18.8407 9.83887 19.4788 9.11621C20.1168 8.38704 20.9404 8.02246 21.9495 8.02246C22.6005 8.02246 23.1572 8.2015 23.6194 8.55957C24.0881 8.91764 24.4365 9.36035 24.6643 9.8877L23.5608 10.249C23.1441 9.50033 22.6005 9.12598 21.9299 9.12598C21.2919 9.12598 20.7841 9.3929 20.4065 9.92676C20.0354 10.4541 19.8499 11.1637 19.8499 12.0557C19.8499 12.9606 20.0387 13.6768 20.4163 14.2041C20.7939 14.7314 21.2984 14.9951 21.9299 14.9951C22.3401 14.9951 22.7014 14.8714 23.0139 14.624C23.3329 14.3766 23.5641 14.0739 23.7073 13.7158L24.8596 14.0771C24.762 14.3115 24.635 14.5394 24.4788 14.7607C24.329 14.9756 24.137 15.1904 23.9026 15.4053C23.6747 15.6136 23.3915 15.7829 23.053 15.9131C22.7144 16.0368 22.3466 16.0986 21.9495 16.0986C20.9599 16.0986 20.1396 15.7406 19.4885 15.0244C18.844 14.3018 18.5217 13.3122 18.5217 12.0557ZM25.3381 14.2725L26.471 13.8916C26.6532 14.2171 26.9169 14.484 27.262 14.6924C27.607 14.8942 27.9879 14.9951 28.4046 14.9951C28.8342 14.9951 29.1793 14.891 29.4397 14.6826C29.7001 14.4743 29.8303 14.2041 29.8303 13.8721C29.8303 13.5205 29.6904 13.2471 29.4104 13.0518C29.137 12.8564 28.7333 12.6676 28.1995 12.4854C27.4378 12.2314 26.9234 12.0296 26.6565 11.8799C25.9599 11.4827 25.6116 10.9066 25.6116 10.1514C25.6116 9.51335 25.8622 8.99902 26.3635 8.6084C26.8648 8.21777 27.5191 8.02246 28.3264 8.02246C28.9905 8.02246 29.5569 8.17871 30.0256 8.49121C30.5009 8.7972 30.846 9.19108 31.0608 9.67285L29.9768 10.0342C29.5601 9.42871 29.0068 9.12598 28.3167 9.12598C27.8935 9.12598 27.5582 9.22038 27.3108 9.40918C27.0634 9.59798 26.9397 9.84538 26.9397 10.1514C26.9397 10.2425 26.9495 10.3304 26.969 10.415C26.9885 10.4932 27.0276 10.568 27.0862 10.6396C27.1448 10.7113 27.1969 10.7731 27.2424 10.8252C27.288 10.8773 27.3629 10.9326 27.4671 10.9912C27.5712 11.0498 27.6526 11.0954 27.7112 11.1279C27.7763 11.1605 27.8805 11.2028 28.0237 11.2549C28.1669 11.307 28.2678 11.3428 28.3264 11.3623C28.3915 11.3818 28.5087 11.4209 28.678 11.4795C28.8473 11.5316 28.9612 11.5674 29.0198 11.5869C29.3193 11.6846 29.5829 11.7887 29.8108 11.8994C30.0387 12.0101 30.26 12.1533 30.4749 12.3291C30.6962 12.4984 30.8655 12.71 30.9827 12.9639C31.0999 13.2178 31.1585 13.5042 31.1585 13.8232C31.1585 14.5459 30.898 15.1058 30.3772 15.5029C29.8629 15.9001 29.1956 16.0986 28.3753 16.0986C27.6656 16.0986 27.0439 15.9359 26.51 15.6104C25.9762 15.2783 25.5855 14.8324 25.3381 14.2725ZM31.7249 14.2725L32.8577 13.8916C33.04 14.2171 33.3036 14.484 33.6487 14.6924C33.9937 14.8942 34.3746 14.9951 34.7913 14.9951C35.221 14.9951 35.566 14.891 35.8264 14.6826C36.0868 14.4743 36.2171 14.2041 36.2171 13.8721C36.2171 13.5205 36.0771 13.2471 35.7971 13.0518C35.5237 12.8564 35.12 12.6676 34.5862 12.4854C33.8245 12.2314 33.3101 12.0296 33.0432 11.8799C32.3466 11.4827 31.9983 10.9066 31.9983 10.1514C31.9983 9.51335 32.249 8.99902 32.7503 8.6084C33.2516 8.21777 33.9059 8.02246 34.7131 8.02246C35.3772 8.02246 35.9436 8.17871 36.4124 8.49121C36.8876 8.7972 37.2327 9.19108 37.4475 9.67285L36.3635 10.0342C35.9469 9.42871 35.3935 9.12598 34.7034 9.12598C34.2802 9.12598 33.9449 9.22038 33.6975 9.40918C33.4501 9.59798 33.3264 9.84538 33.3264 10.1514C33.3264 10.2425 33.3362 10.3304 33.3557 10.415C33.3753 10.4932 33.4143 10.568 33.4729 10.6396C33.5315 10.7113 33.5836 10.7731 33.6292 10.8252C33.6747 10.8773 33.7496 10.9326 33.8538 10.9912C33.9579 11.0498 34.0393 11.0954 34.0979 11.1279C34.163 11.1605 34.2672 11.2028 34.4104 11.2549C34.5536 11.307 34.6546 11.3428 34.7131 11.3623C34.7782 11.3818 34.8954 11.4209 35.0647 11.4795C35.234 11.5316 35.3479 11.5674 35.4065 11.5869C35.706 11.6846 35.9697 11.7887 36.1975 11.8994C36.4254 12.0101 36.6467 12.1533 36.8616 12.3291C37.0829 12.4984 37.2522 12.71 37.3694 12.9639C37.4866 13.2178 37.5452 13.5042 37.5452 13.8232C37.5452 14.5459 37.2848 15.1058 36.7639 15.5029C36.2496 15.9001 35.5823 16.0986 34.762 16.0986C34.0523 16.0986 33.4306 15.9359 32.8967 15.6104C32.3629 15.2783 31.9723 14.8324 31.7249 14.2725Z" fill="black"/>
</svg>
