<svg width="312" height="39" viewBox="0 0 312 39" fill="none" xmlns="http://www.w3.org/2000/svg">
<path d="M7.69687 3.69069L7.85687 3.69069C11.0835 4.27735 12.6969 5.83735 12.6969 8.37069L12.6969 9.09069C12.6969 11.8907 10.9102 14.6774 7.33687 17.4507L7.33687 17.6107C13.1235 22.784 17.1235 25.3707 19.3369 25.3707C19.7369 25.664 19.9369 26.024 19.9369 26.4507C19.9369 27.064 19.4835 27.4507 18.5769 27.6107C16.3635 27.6107 12.2302 24.944 6.17687 19.6107L4.45687 18.6907L4.33687 18.6907C5.08353 21.6774 5.45687 23.984 5.45687 25.6107C5.45687 26.304 5.0302 26.7974 4.17687 27.0907C2.9502 27.0907 2.17687 24.0907 1.85687 18.0907C1.00353 15.3174 0.576866 13.104 0.576866 11.4507L0.576866 11.0907C0.576866 8.66402 1.1102 7.45069 2.17687 7.45069L2.93687 7.85069L3.17687 7.85069C4.45687 5.07735 5.96353 3.69069 7.69687 3.69069ZM4.45687 14.3707L4.33687 15.8507C6.81687 15.8507 8.81687 13.7974 10.3369 9.69069L10.3369 8.21069C10.3369 7.03735 9.53687 6.33069 7.93687 6.09069L7.69687 6.09069C6.01687 6.09069 4.93687 8.85069 4.45687 14.3707ZM30.8381 11.3707C32.8115 11.3707 34.3048 12.8374 35.3181 15.7707L35.4781 16.6107C35.4781 19.464 34.1448 22.384 31.4781 25.3707C30.4115 26.3574 29.3315 26.8507 28.2381 26.8507C26.6381 26.8507 25.5048 25.9307 24.8381 24.0907C24.5981 23.2374 24.4781 22.4907 24.4781 21.8507L24.4781 21.3707C24.4781 17.1574 26.0115 13.9574 29.0781 11.7707C29.6115 11.504 30.1981 11.3707 30.8381 11.3707ZM26.8381 21.7707C26.8381 23.584 27.3048 24.4907 28.2381 24.4907C30.1848 24.4907 31.7981 21.9974 33.0781 17.0107L33.0781 16.2507C32.6248 14.5974 31.7848 13.7707 30.5581 13.7707C30.0781 13.7707 29.8381 14.104 29.8381 14.7707C29.8381 15.224 29.3048 15.584 28.2381 15.8507C27.3048 17.424 26.8381 19.3974 26.8381 21.7707ZM44.1306 12.8907L45.7706 12.6507C46.4373 12.6507 46.8106 13.064 46.8906 13.8907C46.8906 14.6107 46.024 15.0774 44.2906 15.2907C43.1973 16.144 42.6506 17.2374 42.6506 18.5707L42.6506 19.8907C43.184 22.824 44.0906 24.2907 45.3706 24.2907L45.7706 24.2907C46.5173 24.2907 47.6373 23.584 49.1306 22.1707L49.3706 22.1707C49.904 22.1707 50.3306 22.544 50.6506 23.2907C50.2773 24.4374 49.0773 25.4774 47.0506 26.4107C46.6773 26.5707 46.2106 26.6507 45.6506 26.6507C42.904 26.6507 41.1173 24.4907 40.2906 20.1707L40.2906 19.2907C40.2906 16.1707 41.5706 14.0374 44.1306 12.8907ZM57.5078 5.29068L57.7478 5.29068C58.0945 5.29068 58.4278 5.58402 58.7478 6.17069L58.5878 8.89069L58.5878 10.4107L58.7478 17.4107L58.8678 17.8107L58.9878 17.8107C60.1345 16.744 61.1345 14.864 61.9878 12.1707L62.8678 11.8907C63.6145 11.9974 63.9878 12.3307 63.9878 12.8907C63.9878 14.624 62.7478 16.9574 60.2678 19.8907L60.2678 20.1707C63.5478 23.984 65.7078 25.8907 66.7478 25.8907L66.9878 25.8907L67.9878 25.2907L68.3478 25.2907C68.9078 25.2907 69.3211 25.664 69.5878 26.4107C69.5878 27.264 68.6411 27.8507 66.7478 28.1707C64.8545 28.1707 62.3878 26.2507 59.3478 22.4107L58.9878 22.4107L59.1078 24.5707L59.1078 26.6507C58.9478 27.4774 58.5345 27.8907 57.8678 27.8907C57.1211 27.7307 56.7478 27.3174 56.7478 26.6507L56.7478 26.4107L56.5878 21.8107C56.2945 21.8107 56.0945 21.3974 55.9878 20.5707L56.5078 19.5707L56.2678 10.5707L56.2678 8.81069C56.2678 6.46402 56.6811 5.29068 57.5078 5.29068ZM98.7413 0.170685L99.3813 0.170686C103.728 0.170686 106.515 1.74402 107.741 4.89068L107.861 6.17069L107.861 6.57069C107.861 9.66402 105.981 12.5307 102.221 15.1707C101.315 15.4374 100.861 15.7307 100.861 16.0507C101.928 20.1307 102.461 23.464 102.461 26.0507L102.461 26.5707C102.461 27.6374 102.021 28.1707 101.141 28.1707C100.475 28.0907 100.141 27.7574 100.141 27.1707L100.141 26.1707C100.141 23.104 99.5813 19.7707 98.4613 16.1707C96.3013 15.984 95.1013 15.3974 94.8613 14.4107L94.8613 14.1707C94.8613 13.6907 95.2346 13.3174 95.9813 13.0507L97.7413 13.6507L97.7413 13.5707C96.8346 9.62402 96.3813 6.95735 96.3813 5.57069C96.3813 4.79735 96.8346 4.41069 97.7413 4.41069C98.5679 4.41069 98.9813 5.82402 98.9813 8.65069L100.141 13.4107C102.061 12.7707 103.555 11.5174 104.621 9.65069C105.181 8.58402 105.461 7.63735 105.461 6.81069L105.461 6.29069C105.461 4.10402 103.595 2.86402 99.8613 2.57069L98.2213 2.57069C94.5679 2.97069 92.7413 3.83735 92.7413 5.17069L92.7413 5.41069C92.7413 5.81069 92.9546 6.43735 93.3813 7.29069C93.3813 7.87735 92.9146 8.25069 91.9813 8.41069C90.9146 7.90402 90.3813 6.86402 90.3813 5.29068C90.3813 2.35735 93.1679 0.650684 98.7413 0.170685ZM119.824 11.0107C120.998 11.0107 121.584 11.4774 121.584 12.4107L121.224 13.1707L120.984 20.4907C120.984 23.7974 121.651 25.8507 122.984 26.6507L123.064 27.2507C122.984 28.024 122.624 28.4107 121.984 28.4107L121.744 28.4107C119.744 27.0507 118.744 24.9707 118.744 22.1707L118.464 22.1707C117.398 25.1574 116.104 26.6507 114.584 26.6507C113.171 26.2507 112.464 25.1974 112.464 23.4907C112.464 19.7307 113.971 15.984 116.984 12.2507C117.998 11.424 118.944 11.0107 119.824 11.0107ZM114.984 21.8907L114.824 23.0107L114.824 23.7707L115.224 23.7707C117.224 18.784 118.224 15.744 118.224 14.6507L118.064 14.6507C116.518 16.384 115.491 18.7974 114.984 21.8907ZM131.744 14.5707C134.571 14.5707 136.237 16.344 136.744 19.8907C136.744 23.0374 135.277 25.2907 132.344 26.6507C132.024 26.8107 131.584 26.8907 131.024 26.8907L130.744 26.8907L129.864 26.8107L129.864 26.8907L130.024 37.5707C129.837 38.3974 129.411 38.8107 128.744 38.8107C127.997 38.5707 127.624 38.184 127.624 37.6507L127.264 15.8907C127.264 15.1974 127.677 14.8374 128.504 14.8107L129.344 15.1707C130.091 14.7707 130.891 14.5707 131.744 14.5707ZM129.744 18.8107L129.624 20.0507L129.744 24.2907L130.864 24.5707C132.651 24.5707 133.811 23.264 134.344 20.6507L134.344 20.0507C134.157 17.944 133.411 16.8907 132.104 16.8907L131.504 16.8907C130.331 16.8907 129.744 17.5307 129.744 18.8107ZM145.021 12.0907C146.088 12.1174 147.888 13.984 150.421 17.6907L150.501 18.3707C150.501 19.1174 148.674 19.6907 145.021 20.0907L144.901 20.2107L144.901 20.3707C145.461 22.7707 146.048 23.9707 146.661 23.9707L147.141 23.9707C147.994 23.9707 149.288 23.0507 151.021 21.2107L151.261 21.2107C151.794 21.2107 152.208 21.5974 152.501 22.3707C152.501 23.0107 151.381 24.1174 149.141 25.6907C148.554 26.0374 147.848 26.2907 147.021 26.4507C144.861 26.4507 143.354 24.424 142.501 20.3707C141.274 20.184 140.661 19.6774 140.661 18.8507C140.661 18.264 141.114 17.8774 142.021 17.6907L142.021 17.8507L142.421 17.6907L142.421 16.6907C142.421 13.624 143.288 12.0907 145.021 12.0907ZM145.261 14.9707L144.901 14.9707L144.741 16.4507L144.741 17.6907L144.901 17.6907C146.394 17.6374 147.141 17.4774 147.141 17.2107C146.448 16.1707 145.821 15.424 145.261 14.9707ZM162.118 10.6907C163.798 10.6907 164.798 11.864 165.118 14.2107L165.118 14.5707C165.118 17.1574 163.785 19.5307 161.118 21.6907C162.665 23.2107 165.371 23.9707 169.238 23.9707C169.825 24.1574 170.118 24.5707 170.118 25.2107C170.118 25.9307 169.651 26.2907 168.718 26.2907C166.105 26.2907 163.358 25.624 160.478 24.2907L160.478 25.4507C160.478 28.1974 159.891 29.5707 158.718 29.5707C157.891 29.5707 157.478 27.984 157.478 24.8107L157.478 21.6907L157.358 20.5707L157.638 19.2907L157.358 15.4507L157.358 15.2907C157.358 14.5707 157.731 14.0774 158.478 13.8107C159.518 11.7307 160.731 10.6907 162.118 10.6907ZM160.118 19.4507C160.891 19.4507 161.758 18.064 162.718 15.2907L162.718 13.5707L162.238 13.0507L161.878 13.0507C160.705 13.8507 160.118 15.984 160.118 19.4507ZM204.246 2.77069L204.646 2.77069C205.392 2.77069 205.819 3.21069 205.926 4.09069C205.926 4.86402 204.872 5.25069 202.766 5.25069C199.379 6.53069 197.099 8.39735 195.926 10.8507L195.646 12.0107L195.646 12.2507C195.646 13.424 196.432 14.0107 198.006 14.0107L202.406 13.7707C205.366 13.7707 207.366 15.2107 208.406 18.0907L208.646 19.4907C208.646 22.264 206.406 24.7974 201.926 27.0907C200.592 27.464 199.419 27.7174 198.406 27.8507C195.686 27.8507 193.766 26.3174 192.646 23.2507C192.326 22.2107 192.166 21.1574 192.166 20.0907C192.166 19.7707 192.419 19.4374 192.926 19.0907L193.406 19.0907C194.232 19.0907 194.646 20.144 194.646 22.2507C195.339 24.3307 196.432 25.3707 197.926 25.3707L199.006 25.3707C201.166 25.3707 203.299 24.1174 205.406 21.6107C205.966 20.8107 206.246 19.944 206.246 19.0107C206.246 17.704 205.219 16.784 203.166 16.2507L203.006 16.2507L197.766 16.3707C194.859 16.024 193.406 14.824 193.406 12.7707L193.246 12.2507C193.246 9.50402 195.299 6.83735 199.406 4.25069C201.192 3.26402 202.806 2.77069 204.246 2.77069ZM217.209 12.8907L218.849 12.6507C219.515 12.6507 219.889 13.064 219.969 13.8907C219.969 14.6107 219.102 15.0774 217.369 15.2907C216.275 16.144 215.729 17.2374 215.729 18.5707L215.729 19.8907C216.262 22.824 217.169 24.2907 218.449 24.2907L218.849 24.2907C219.595 24.2907 220.715 23.584 222.209 22.1707L222.449 22.1707C222.982 22.1707 223.409 22.544 223.729 23.2907C223.355 24.4374 222.155 25.4774 220.129 26.4107C219.755 26.5707 219.289 26.6507 218.729 26.6507C215.982 26.6507 214.195 24.4907 213.369 20.1707L213.369 19.2907C213.369 16.1707 214.649 14.0374 217.209 12.8907ZM229.026 5.61069C230.039 5.82402 230.546 6.27735 230.546 6.97069C230.279 7.71735 229.853 8.09069 229.266 8.09069C228.279 7.90402 227.786 7.41069 227.786 6.61069C228.053 5.94402 228.466 5.61069 229.026 5.61069ZM230.546 11.2107C230.973 11.2107 231.333 11.5974 231.626 12.3707L231.266 15.2107L231.266 17.0907C231.266 19.2774 231.639 22.144 232.386 25.6907C232.119 26.1974 231.666 26.4507 231.026 26.4507C229.933 26.4507 229.213 23.2507 228.866 16.8507L228.866 15.4507C228.866 12.624 229.426 11.2107 230.546 11.2107ZM245.284 10.2507C246.004 10.2507 246.498 11.464 246.764 13.8907C246.498 14.5574 246.058 14.8907 245.444 14.8907C245.018 14.8107 244.591 14.3174 244.164 13.4107L243.444 13.1707C242.191 13.1707 241.058 13.9974 240.044 15.6507L240.044 16.0107C240.044 16.4107 241.924 17.0774 245.684 18.0107C247.258 18.944 248.044 20.0774 248.044 21.4107C248.044 23.5974 246.284 25.464 242.764 27.0107L241.284 27.2507C239.044 27.0107 237.924 25.8907 237.924 23.8907L237.924 23.7707C237.924 23.1307 238.338 22.7574 239.164 22.6507C239.804 22.6507 240.231 23.3174 240.444 24.6507L240.764 24.8907L241.444 24.8907C242.964 24.8907 244.378 23.8507 245.684 21.7707L245.684 21.2507C245.684 20.4507 243.938 19.704 240.444 19.0107C238.604 18.264 237.684 17.224 237.684 15.8907C237.684 14.1574 239.138 12.5307 242.044 11.0107C243.324 10.8507 244.404 10.5974 245.284 10.2507ZM260.35 10.2507C261.07 10.2507 261.563 11.464 261.83 13.8907C261.563 14.5574 261.123 14.8907 260.51 14.8907C260.083 14.8107 259.657 14.3174 259.23 13.4107L258.51 13.1707C257.257 13.1707 256.123 13.9974 255.11 15.6507L255.11 16.0107C255.11 16.4107 256.99 17.0774 260.75 18.0107C262.323 18.944 263.11 20.0774 263.11 21.4107C263.11 23.5974 261.35 25.464 257.83 27.0107L256.35 27.2507C254.11 27.0107 252.99 25.8907 252.99 23.8907L252.99 23.7707C252.99 23.1307 253.403 22.7574 254.23 22.6507C254.87 22.6507 255.297 23.3174 255.51 24.6507L255.83 24.8907L256.51 24.8907C258.03 24.8907 259.443 23.8507 260.75 21.7707L260.75 21.2507C260.75 20.4507 259.003 19.704 255.51 19.0107C253.67 18.264 252.75 17.224 252.75 15.8907C252.75 14.1574 254.203 12.5307 257.11 11.0107C258.39 10.8507 259.47 10.5974 260.35 10.2507ZM273.776 11.3707C275.749 11.3707 277.242 12.8374 278.256 15.7707L278.416 16.6107C278.416 19.464 277.082 22.384 274.416 25.3707C273.349 26.3574 272.269 26.8507 271.176 26.8507C269.576 26.8507 268.442 25.9307 267.776 24.0907C267.536 23.2374 267.416 22.4907 267.416 21.8507L267.416 21.3707C267.416 17.1574 268.949 13.9574 272.016 11.7707C272.549 11.504 273.136 11.3707 273.776 11.3707ZM269.776 21.7707C269.776 23.584 270.242 24.4907 271.176 24.4907C273.122 24.4907 274.736 21.9974 276.016 17.0107L276.016 16.2507C275.562 14.5974 274.722 13.7707 273.496 13.7707C273.016 13.7707 272.776 14.104 272.776 14.7707C272.776 15.224 272.242 15.584 271.176 15.8507C270.242 17.424 269.776 19.3974 269.776 21.7707ZM288.268 10.6907C289.948 10.6907 290.948 11.864 291.268 14.2107L291.268 14.5707C291.268 17.1574 289.935 19.5307 287.268 21.6907C288.815 23.2107 291.521 23.9707 295.388 23.9707C295.975 24.1574 296.268 24.5707 296.268 25.2107C296.268 25.9307 295.801 26.2907 294.868 26.2907C292.255 26.2907 289.508 25.624 286.628 24.2907L286.628 25.4507C286.628 28.1974 286.041 29.5707 284.868 29.5707C284.041 29.5707 283.628 27.984 283.628 24.8107L283.628 21.6907L283.508 20.5707L283.788 19.2907L283.508 15.4507L283.508 15.2907C283.508 14.5707 283.881 14.0774 284.628 13.8107C285.668 11.7307 286.881 10.6907 288.268 10.6907ZM286.268 19.4507C287.041 19.4507 287.908 18.064 288.868 15.2907L288.868 13.5707L288.388 13.0507L288.028 13.0507C286.855 13.8507 286.268 15.984 286.268 19.4507ZM308.438 10.2507C309.158 10.2507 309.651 11.464 309.918 13.8907C309.651 14.5574 309.211 14.8907 308.598 14.8907C308.171 14.8107 307.744 14.3174 307.318 13.4107L306.598 13.1707C305.344 13.1707 304.211 13.9974 303.198 15.6507L303.198 16.0107C303.198 16.4107 305.078 17.0774 308.838 18.0107C310.411 18.944 311.198 20.0774 311.198 21.4107C311.198 23.5974 309.438 25.464 305.918 27.0107L304.438 27.2507C302.198 27.0107 301.078 25.8907 301.078 23.8907L301.078 23.7707C301.078 23.1307 301.491 22.7574 302.318 22.6507C302.958 22.6507 303.384 23.3174 303.598 24.6507L303.918 24.8907L304.598 24.8907C306.118 24.8907 307.531 23.8507 308.838 21.7707L308.838 21.2507C308.838 20.4507 307.091 19.704 303.598 19.0107C301.758 18.264 300.838 17.224 300.838 15.8907C300.838 14.1574 302.291 12.5307 305.198 11.0107C306.478 10.8507 307.558 10.5974 308.438 10.2507Z" fill="#474540"/>
</svg>
