<svg width="19" height="20" viewBox="0 0 19 20" fill="none" xmlns="http://www.w3.org/2000/svg">
<path fill-rule="evenodd" clip-rule="evenodd" d="M8.75614 0.250684C8.95351 0.090163 9.22105 0 9.5 0C9.77895 0 10.0465 0.090163 10.2439 0.250684L18.665 7.10809C18.7684 7.18656 18.8513 7.28119 18.9089 7.38634C18.9664 7.49148 18.9973 7.60499 18.9998 7.72008C19.0023 7.83518 18.9763 7.9495 18.9234 8.05623C18.8704 8.16297 18.7916 8.25992 18.6917 8.34132C18.5917 8.42271 18.4727 8.48688 18.3416 8.52999C18.2105 8.5731 18.0701 8.59428 17.9288 8.59225C17.7875 8.59022 17.6481 8.56502 17.5189 8.51817C17.3898 8.47132 17.2736 8.40378 17.1772 8.31956L10.5526 2.92507V19.1428C10.5526 19.3702 10.4417 19.5882 10.2443 19.7489C10.0469 19.9097 9.77918 20 9.5 20C9.22082 20 8.95308 19.9097 8.75567 19.7489C8.55826 19.5882 8.44736 19.3702 8.44736 19.1428V2.92507L1.82276 8.31956C1.72639 8.40378 1.61018 8.47132 1.48106 8.51817C1.35193 8.56502 1.21255 8.59022 1.07121 8.59225C0.929869 8.59428 0.789477 8.5731 0.658405 8.52999C0.527333 8.48688 0.408267 8.42271 0.30831 8.34132C0.208354 8.25992 0.129554 8.16297 0.0766115 8.05623C0.0236694 7.9495 -0.00232993 7.83518 0.000163822 7.72008C0.00265757 7.60499 0.0335932 7.49148 0.0911262 7.38634C0.148659 7.28119 0.23161 7.18656 0.335031 7.10809L8.75614 0.250684Z" fill="#948F8F"/>
</svg>
