<svg width="25" height="22" viewBox="0 0 25 22" fill="none" xmlns="http://www.w3.org/2000/svg">
<path d="M23.0684 5.83128C23.1535 3.93941 22.8982 2.10403 22.2553 0.315698C22.1702 0.0898045 22.0662 0.00509372 21.8298 0.0709795C21.3003 0.230988 20.7519 0.353347 20.2319 0.541592C18.7947 1.05927 17.4804 1.81225 16.2039 2.63111C16.0716 2.71582 15.873 2.77229 15.7123 2.74406C13.6227 2.37698 11.5236 2.39581 9.42454 2.71582C9.21652 2.74406 8.95177 2.697 8.78158 2.59346C7.29711 1.63341 5.78427 0.692187 4.05397 0.240399C2.62623 -0.136091 2.91934 -0.211387 2.51276 1.07809C2.03055 2.6217 1.84144 4.22178 1.94545 5.84069C1.9549 5.95363 1.86981 6.09482 1.79417 6.19835C1.17012 6.94192 0.687904 7.76079 0.394792 8.68319C-0.172522 10.4715 -0.059059 12.2787 0.30024 14.0764C1.00938 17.606 3.40155 20.0814 6.93781 20.6932C8.76267 21.0132 10.6443 21.0415 12.3557 21.1827C14.2656 21.0415 16.0337 21.0321 17.7546 20.7591C20.7614 20.2791 23.0306 18.6884 24.1652 15.7988C24.5624 14.7917 24.7798 13.6905 24.9122 12.6175C25.2053 10.2456 24.7987 8.02433 23.1724 6.15129C23.1157 6.07599 23.0684 5.94422 23.0684 5.83128ZM21.5178 15.9871C21.2058 17.4554 20.3453 18.4625 18.9081 18.9802C17.5182 19.4884 16.081 19.6955 14.6155 19.7896C13.9063 19.8367 13.1972 19.7991 12.488 19.7991C10.5781 19.8367 8.66812 19.7614 6.82435 19.2155C4.50782 18.5284 3.46774 17.1542 3.40155 14.7447C3.37319 13.8882 3.46774 13.0599 3.87432 12.2881C4.67801 10.7351 6.06793 10.1891 7.71314 10.1609C8.61139 10.1515 9.51909 10.2268 10.4268 10.3115C12.3273 10.4809 14.2089 10.3021 16.0999 10.1986C16.932 10.1515 17.783 10.1327 18.5961 10.2739C20.3453 10.575 21.6691 12.3069 21.6974 14.2552C21.6974 14.8294 21.6312 15.4224 21.5178 15.9871Z" fill="black"/>
<path d="M7.14993 12.7584C6.62989 13.2949 6.45024 13.9726 6.42188 14.575C6.42188 15.4786 6.68662 16.2033 7.14993 16.6739C7.79288 17.3234 8.67222 17.3046 9.28681 16.6457C10.2134 15.648 10.204 13.775 9.28681 12.7867C8.67222 12.1184 7.77397 12.109 7.14993 12.7584Z" fill="black"/>
<path d="M15.8528 12.6836C14.7938 13.6531 14.7938 15.7896 15.8528 16.7497C16.4674 17.305 17.2995 17.2768 17.8763 16.6838C18.4057 16.1379 18.5948 15.4508 18.6138 14.7072C18.5948 13.9637 18.4057 13.286 17.8668 12.7401C17.29 12.1471 16.458 12.1283 15.8528 12.6836Z" fill="black"/>
</svg>
