<svg width="59" height="42" viewBox="0 0 59 42" fill="none" xmlns="http://www.w3.org/2000/svg">
<mask id="path-1-outside-1_195_1912" maskUnits="userSpaceOnUse" x="-1" y="-1" width="61" height="44" fill="black">
<rect fill="white" x="-1" y="-1" width="61" height="44"/>
<path d="M30.2612 16.5947L28.3276 24.356L26.3672 30.2373L22.4463 36.0649L18.4985 40.0127L12.5635 42H8.53516L4.53369 40.0127L2.49268 37.918L0.505371 31.9829V26.1016L2.43896 18.3403L4.39941 12.459L8.32031 6.63135L12.2681 2.68359L18.2031 0.696289H22.2314L26.2598 2.68359L28.2739 4.77832L30.2612 10.7134V16.5947ZM25.5347 16.4873V7.00732L23.6548 3.32812L21.9629 1.58252H18.3911L14.7388 3.73096L10.9521 9.04834L9.01855 12.8618L7.16553 18.582L5.23193 26.209V35.6621L7.11182 39.3682L8.80371 41.1138H12.3755L16.0815 39.3145L19.8145 33.6479L21.748 29.8345L23.6011 24.1143L25.5347 16.4873ZM58.3778 10.8745L56.3905 14.8223L54.6986 16.917L50.4018 18.8506L45.8363 20.3813L50.4555 21.9121L52.5502 23.9531L54.5375 27.9814V33.9702L52.4965 38.0522L48.4682 40.0127L42.5868 42H36.7055L30.7704 40.0127L28.6757 37.9717L26.6884 33.9702V29.5659H31.4149V34.2925H27.8432L29.4545 37.4346L31.2001 39.2607L36.8129 41.1138H42.4257L46.1049 39.2607L47.9311 37.4346L49.8109 33.7554V26.2627L47.9848 22.6372L44.3593 20.8379H40.6264V19.9517H44.3593L48.0385 18.0718L51.7714 14.3389L53.6513 10.6597V7.00732L51.7714 3.32812L50.0795 1.58252H44.5204L38.9076 3.43555L37.1352 5.26172L35.5507 8.40381H39.1225V13.1304H34.3959V8.72607L36.3832 4.69775L38.4779 2.68359L44.413 0.696289L50.4555 0.75L56.3368 2.68359L58.3778 6.79248V10.8745Z"/>
</mask>
<path d="M30.2612 16.5947L28.3276 24.356L26.3672 30.2373L22.4463 36.0649L18.4985 40.0127L12.5635 42H8.53516L4.53369 40.0127L2.49268 37.918L0.505371 31.9829V26.1016L2.43896 18.3403L4.39941 12.459L8.32031 6.63135L12.2681 2.68359L18.2031 0.696289H22.2314L26.2598 2.68359L28.2739 4.77832L30.2612 10.7134V16.5947ZM25.5347 16.4873V7.00732L23.6548 3.32812L21.9629 1.58252H18.3911L14.7388 3.73096L10.9521 9.04834L9.01855 12.8618L7.16553 18.582L5.23193 26.209V35.6621L7.11182 39.3682L8.80371 41.1138H12.3755L16.0815 39.3145L19.8145 33.6479L21.748 29.8345L23.6011 24.1143L25.5347 16.4873ZM58.3778 10.8745L56.3905 14.8223L54.6986 16.917L50.4018 18.8506L45.8363 20.3813L50.4555 21.9121L52.5502 23.9531L54.5375 27.9814V33.9702L52.4965 38.0522L48.4682 40.0127L42.5868 42H36.7055L30.7704 40.0127L28.6757 37.9717L26.6884 33.9702V29.5659H31.4149V34.2925H27.8432L29.4545 37.4346L31.2001 39.2607L36.8129 41.1138H42.4257L46.1049 39.2607L47.9311 37.4346L49.8109 33.7554V26.2627L47.9848 22.6372L44.3593 20.8379H40.6264V19.9517H44.3593L48.0385 18.0718L51.7714 14.3389L53.6513 10.6597V7.00732L51.7714 3.32812L50.0795 1.58252H44.5204L38.9076 3.43555L37.1352 5.26172L35.5507 8.40381H39.1225V13.1304H34.3959V8.72607L36.3832 4.69775L38.4779 2.68359L44.413 0.696289L50.4555 0.75L56.3368 2.68359L58.3778 6.79248V10.8745Z" fill="#D9D9D9"/>
<path d="M30.2612 16.5947L31.2316 16.8365L31.2612 16.7174V16.5947H30.2612ZM28.3276 24.356L29.2763 24.6722L29.2886 24.6354L29.298 24.5977L28.3276 24.356ZM26.3672 30.2373L27.1969 30.7955L27.2728 30.6826L27.3159 30.5535L26.3672 30.2373ZM22.4463 36.0649L23.1534 36.772L23.2219 36.7035L23.276 36.6232L22.4463 36.0649ZM18.4985 40.0127L18.816 40.9609L19.0392 40.8862L19.2056 40.7198L18.4985 40.0127ZM12.5635 42V43H12.7264L12.881 42.9483L12.5635 42ZM8.53516 42L8.09035 42.8956L8.30051 43H8.53516V42ZM4.53369 40.0127L3.81746 40.7106L3.93633 40.8326L4.08888 40.9083L4.53369 40.0127ZM2.49268 37.918L1.54442 38.2355L1.61698 38.4522L1.77645 38.6158L2.49268 37.918ZM0.505371 31.9829H-0.494629V32.1459L-0.442882 32.3004L0.505371 31.9829ZM0.505371 26.1016L-0.464969 25.8598L-0.494629 25.9789V26.1016H0.505371ZM2.43896 18.3403L1.49028 18.0241L1.47801 18.0609L1.46863 18.0986L2.43896 18.3403ZM4.39941 12.459L3.56972 11.9008L3.49376 12.0137L3.45073 12.1428L4.39941 12.459ZM8.32031 6.63135L7.61321 5.92424L7.5447 5.99274L7.49062 6.07312L8.32031 6.63135ZM12.2681 2.68359L11.9506 1.73534L11.7274 1.81007L11.561 1.97649L12.2681 2.68359ZM18.2031 0.696289V-0.303711H18.0402L17.8856 -0.251964L18.2031 0.696289ZM22.2314 0.696289L22.6739 -0.200517L22.4647 -0.303711H22.2314V0.696289ZM26.2598 2.68359L26.9806 1.99048L26.8592 1.86426L26.7022 1.78679L26.2598 2.68359ZM28.2739 4.77832L29.2222 4.46081L29.1507 4.24742L28.9948 4.08521L28.2739 4.77832ZM30.2612 10.7134H31.2612V10.5504L31.2095 10.3959L30.2612 10.7134ZM25.5347 16.4873L26.504 16.7331L26.5347 16.6121V16.4873H25.5347ZM25.5347 7.00732H26.5347V6.76665L26.4252 6.55233L25.5347 7.00732ZM23.6548 3.32812L24.5453 2.87313L24.4771 2.73972L24.3729 2.63215L23.6548 3.32812ZM21.9629 1.58252L22.681 0.886546L22.3863 0.58252H21.9629V1.58252ZM18.3911 1.58252V0.58252H18.1188L17.8841 0.720585L18.3911 1.58252ZM14.7388 3.73096L14.2317 2.86902L14.0479 2.97716L13.9242 3.15089L14.7388 3.73096ZM10.9521 9.04834L10.1376 8.46827L10.0941 8.52929L10.0602 8.59611L10.9521 9.04834ZM9.01855 12.8618L8.12665 12.4096L8.09131 12.4793L8.06723 12.5536L9.01855 12.8618ZM7.16553 18.582L6.2142 18.2739L6.20418 18.3048L6.19619 18.3363L7.16553 18.582ZM5.23193 26.209L4.2626 25.9632L4.23193 26.0842V26.209H5.23193ZM5.23193 35.6621H4.23193V35.9012L4.34011 36.1145L5.23193 35.6621ZM7.11182 39.3682L6.21999 39.8205L6.28844 39.9555L6.39375 40.0641L7.11182 39.3682ZM8.80371 41.1138L8.08564 41.8097L8.38032 42.1138H8.80371V41.1138ZM12.3755 41.1138V42.1138H12.6054L12.8122 42.0134L12.3755 41.1138ZM16.0815 39.3145L16.5183 40.214L16.7655 40.094L16.9166 39.8646L16.0815 39.3145ZM19.8145 33.6479L20.6495 34.1981L20.6807 34.1507L20.7064 34.1002L19.8145 33.6479ZM21.748 29.8345L22.6399 30.2867L22.6753 30.217L22.6994 30.1427L21.748 29.8345ZM23.6011 24.1143L24.5524 24.4224L24.5624 24.3915L24.5704 24.36L23.6011 24.1143ZM29.2909 16.353L27.3573 24.1142L29.298 24.5977L31.2316 16.8365L29.2909 16.353ZM27.379 24.0397L25.4185 29.9211L27.3159 30.5535L29.2763 24.6722L27.379 24.0397ZM25.5375 29.6791L21.6166 35.5067L23.276 36.6232L27.1969 30.7955L25.5375 29.6791ZM21.7392 35.3578L17.7914 39.3056L19.2056 40.7198L23.1534 36.772L21.7392 35.3578ZM18.181 39.0644L12.246 41.0517L12.881 42.9483L18.816 40.9609L18.181 39.0644ZM12.5635 41H8.53516V43H12.5635V41ZM8.97996 41.1044L4.9785 39.1171L4.08888 40.9083L8.09035 42.8956L8.97996 41.1044ZM5.24992 39.3148L3.20891 37.2201L1.77645 38.6158L3.81746 40.7106L5.24992 39.3148ZM3.44093 37.6005L1.45362 31.6654L-0.442882 32.3004L1.54442 38.2355L3.44093 37.6005ZM1.50537 31.9829V26.1016H-0.494629V31.9829H1.50537ZM1.47571 26.3433L3.4093 18.5821L1.46863 18.0986L-0.464969 25.8598L1.47571 26.3433ZM3.38765 18.6566L5.3481 12.7752L3.45073 12.1428L1.49028 18.0241L3.38765 18.6566ZM5.2291 13.0172L9.15 7.18957L7.49062 6.07312L3.56972 11.9008L5.2291 13.0172ZM9.02742 7.33845L12.9752 3.3907L11.561 1.97649L7.61321 5.92424L9.02742 7.33845ZM12.5856 3.63185L18.5206 1.64454L17.8856 -0.251964L11.9506 1.73534L12.5856 3.63185ZM18.2031 1.69629H22.2314V-0.303711H18.2031V1.69629ZM21.789 1.5931L25.8173 3.5804L26.7022 1.78679L22.6739 -0.200517L21.789 1.5931ZM25.5389 3.3767L27.5531 5.47143L28.9948 4.08521L26.9806 1.99048L25.5389 3.3767ZM27.3257 5.09584L29.313 11.0309L31.2095 10.3959L29.2222 4.46081L27.3257 5.09584ZM29.2612 10.7134V16.5947H31.2612V10.7134H29.2612ZM26.5347 16.4873V7.00732H24.5347V16.4873H26.5347ZM26.4252 6.55233L24.5453 2.87313L22.7643 3.78312L24.6442 7.46232L26.4252 6.55233ZM24.3729 2.63215L22.681 0.886546L21.2448 2.27849L22.9367 4.0241L24.3729 2.63215ZM21.9629 0.58252H18.3911V2.58252H21.9629V0.58252ZM17.8841 0.720585L14.2317 2.86902L15.2458 4.59289L18.8981 2.44445L17.8841 0.720585ZM13.9242 3.15089L10.1376 8.46827L11.7667 9.62841L15.5533 4.31103L13.9242 3.15089ZM10.0602 8.59611L8.12665 12.4096L9.91046 13.314L11.844 9.50057L10.0602 8.59611ZM8.06723 12.5536L6.2142 18.2739L8.11686 18.8902L9.96988 13.17L8.06723 12.5536ZM6.19619 18.3363L4.2626 25.9632L6.20127 26.4547L8.13486 18.8278L6.19619 18.3363ZM4.23193 26.209V35.6621H6.23193V26.209H4.23193ZM4.34011 36.1145L6.21999 39.8205L8.00364 38.9158L6.12376 35.2097L4.34011 36.1145ZM6.39375 40.0641L8.08564 41.8097L9.52178 40.4178L7.82988 38.6722L6.39375 40.0641ZM8.80371 42.1138H12.3755V40.1138H8.80371V42.1138ZM12.8122 42.0134L16.5183 40.214L15.6448 38.4149L11.9387 40.2142L12.8122 42.0134ZM16.9166 39.8646L20.6495 34.1981L18.9794 33.0978L15.2465 38.7643L16.9166 39.8646ZM20.7064 34.1002L22.6399 30.2867L20.8561 29.3822L18.9226 33.1957L20.7064 34.1002ZM22.6994 30.1427L24.5524 24.4224L22.6497 23.8061L20.7967 29.5263L22.6994 30.1427ZM24.5704 24.36L26.504 16.7331L24.5653 16.2416L22.6317 23.8685L24.5704 24.36ZM58.3778 10.8745L59.271 11.3242L59.3778 11.112V10.8745H58.3778ZM56.3905 14.8223L57.1685 15.4506L57.2357 15.3674L57.2837 15.2719L56.3905 14.8223ZM54.6986 16.917L55.109 17.8289L55.3266 17.731L55.4766 17.5453L54.6986 16.917ZM50.4018 18.8506L50.7197 19.7987L50.7668 19.7829L50.8121 19.7625L50.4018 18.8506ZM45.8363 20.3813L45.5184 19.4332L42.6741 20.3869L45.5218 21.3306L45.8363 20.3813ZM50.4555 21.9121L51.1533 21.1959L50.9885 21.0353L50.77 20.9629L50.4555 21.9121ZM52.5502 23.9531L53.447 23.5107L53.371 23.3567L53.2481 23.2369L52.5502 23.9531ZM54.5375 27.9814H55.5375V27.7482L55.4343 27.539L54.5375 27.9814ZM54.5375 33.9702L55.4319 34.4174L55.5375 34.2063V33.9702H54.5375ZM52.4965 38.0522L52.9341 38.9514L53.2392 38.8029L53.3909 38.4995L52.4965 38.0522ZM48.4682 40.0127L48.7883 40.9601L48.8486 40.9397L48.9058 40.9119L48.4682 40.0127ZM42.5868 42V43H42.7512L42.9069 42.9474L42.5868 42ZM36.7055 42L36.388 42.9483L36.5425 43H36.7055V42ZM30.7704 40.0127L30.0725 40.7289L30.2362 40.8884L30.4529 40.9609L30.7704 40.0127ZM28.6757 37.9717L27.7801 38.4165L27.8558 38.569L27.9778 38.6879L28.6757 37.9717ZM26.6884 33.9702H25.6884V34.2049L25.7928 34.415L26.6884 33.9702ZM26.6884 29.5659V28.5659H25.6884V29.5659H26.6884ZM31.4149 29.5659H32.4149V28.5659H31.4149V29.5659ZM31.4149 34.2925V35.2925H32.4149V34.2925H31.4149ZM27.8432 34.2925V33.2925H26.2065L26.9533 34.7488L27.8432 34.2925ZM29.4545 37.4346L28.5647 37.8909L28.6311 38.0204L28.7316 38.1256L29.4545 37.4346ZM31.2001 39.2607L30.4772 39.9517L30.6496 40.1321L30.8866 40.2103L31.2001 39.2607ZM36.8129 41.1138L36.4994 42.0634L36.6521 42.1138H36.8129V41.1138ZM42.4257 41.1138V42.1138H42.6633L42.8755 42.0069L42.4257 41.1138ZM46.1049 39.2607L46.5547 40.1539L46.6983 40.0815L46.812 39.9678L46.1049 39.2607ZM47.9311 37.4346L48.6382 38.1417L48.7497 38.0301L48.8215 37.8896L47.9311 37.4346ZM49.8109 33.7554L50.7014 34.2104L50.8109 33.996V33.7554H49.8109ZM49.8109 26.2627H50.8109V26.0251L50.704 25.8128L49.8109 26.2627ZM47.9848 22.6372L48.8779 22.1873L48.7279 21.8896L48.4293 21.7415L47.9848 22.6372ZM44.3593 20.8379L44.8038 19.9421L44.5938 19.8379H44.3593V20.8379ZM40.6264 20.8379H39.6264V21.8379H40.6264V20.8379ZM40.6264 19.9517V18.9517H39.6264V19.9517H40.6264ZM44.3593 19.9517V20.9517H44.6L44.8143 20.8422L44.3593 19.9517ZM48.0385 18.0718L48.4935 18.9623L48.634 18.8905L48.7456 18.7789L48.0385 18.0718ZM51.7714 14.3389L52.4785 15.046L52.5901 14.9344L52.6619 14.7939L51.7714 14.3389ZM53.6513 10.6597L54.5418 11.1147L54.6513 10.9003V10.6597H53.6513ZM53.6513 7.00732H54.6513V6.76665L54.5418 6.55233L53.6513 7.00732ZM51.7714 3.32812L52.6619 2.87313L52.5937 2.73972L52.4895 2.63215L51.7714 3.32812ZM50.0795 1.58252L50.7976 0.886546L50.5029 0.58252H50.0795V1.58252ZM44.5204 1.58252V0.58252H44.3596L44.2069 0.632931L44.5204 1.58252ZM38.9076 3.43555L38.5941 2.48596L38.361 2.56292L38.19 2.73907L38.9076 3.43555ZM37.1352 5.26172L36.4176 4.56524L36.3111 4.67495L36.2423 4.81146L37.1352 5.26172ZM35.5507 8.40381L34.6578 7.95354L33.9265 9.40381H35.5507V8.40381ZM39.1225 8.40381H40.1225V7.40381H39.1225V8.40381ZM39.1225 13.1304V14.1304H40.1225V13.1304H39.1225ZM34.3959 13.1304H33.3959V14.1304H34.3959V13.1304ZM34.3959 8.72607L33.4991 8.28365L33.3959 8.49283V8.72607H34.3959ZM36.3832 4.69775L35.6901 3.97692L35.5639 4.09829L35.4864 4.25533L36.3832 4.69775ZM38.4779 2.68359L38.1604 1.73534L37.947 1.80679L37.7848 1.96276L38.4779 2.68359ZM44.413 0.696289L44.4219 -0.303671L44.2543 -0.305161L44.0955 -0.251964L44.413 0.696289ZM50.4555 0.75L50.7678 -0.199977L50.62 -0.248577L50.4644 -0.24996L50.4555 0.75ZM56.3368 2.68359L57.2324 2.23872L57.0464 1.86422L56.6491 1.73362L56.3368 2.68359ZM58.3778 6.79248H59.3778V6.55779L59.2734 6.34761L58.3778 6.79248ZM57.4846 10.4249L55.4973 14.3726L57.2837 15.2719L59.271 11.3242L57.4846 10.4249ZM55.6126 14.1939L53.9207 16.2887L55.4766 17.5453L57.1685 15.4506L55.6126 14.1939ZM54.2883 16.0051L49.9914 17.9387L50.8121 19.7625L55.109 17.8289L54.2883 16.0051ZM50.0839 17.9025L45.5184 19.4332L46.1542 21.3295L50.7197 19.7987L50.0839 17.9025ZM45.5218 21.3306L50.1409 22.8613L50.77 20.9629L46.1509 19.4321L45.5218 21.3306ZM49.7576 22.6283L51.8523 24.6694L53.2481 23.2369L51.1533 21.1959L49.7576 22.6283ZM51.6534 24.3955L53.6407 28.4239L55.4343 27.539L53.447 23.5107L51.6534 24.3955ZM53.5375 27.9814V33.9702H55.5375V27.9814H53.5375ZM53.6431 33.523L51.6021 37.605L53.3909 38.4995L55.4319 34.4174L53.6431 33.523ZM52.0589 37.1531L48.0306 39.1135L48.9058 40.9119L52.9341 38.9514L52.0589 37.1531ZM48.148 39.0653L42.2667 41.0526L42.9069 42.9474L48.7883 40.9601L48.148 39.0653ZM42.5868 41H36.7055V43H42.5868V41ZM37.023 41.0517L31.0879 39.0644L30.4529 40.9609L36.388 42.9483L37.023 41.0517ZM31.4683 39.2965L29.3736 37.2555L27.9778 38.6879L30.0725 40.7289L31.4683 39.2965ZM29.5713 37.5269L27.584 33.5254L25.7928 34.415L27.7801 38.4165L29.5713 37.5269ZM27.6884 33.9702V29.5659H25.6884V33.9702H27.6884ZM26.6884 30.5659H31.4149V28.5659H26.6884V30.5659ZM30.4149 29.5659V34.2925H32.4149V29.5659H30.4149ZM31.4149 33.2925H27.8432V35.2925H31.4149V33.2925ZM26.9533 34.7488L28.5647 37.8909L30.3443 36.9783L28.733 33.8362L26.9533 34.7488ZM28.7316 38.1256L30.4772 39.9517L31.923 38.5698L30.1774 36.7436L28.7316 38.1256ZM30.8866 40.2103L36.4994 42.0634L37.1264 40.1642L31.5136 38.3112L30.8866 40.2103ZM36.8129 42.1138H42.4257V40.1138H36.8129V42.1138ZM42.8755 42.0069L46.5547 40.1539L45.6551 38.3676L41.9759 40.2206L42.8755 42.0069ZM46.812 39.9678L48.6382 38.1417L47.2239 36.7275L45.3978 38.5536L46.812 39.9678ZM48.8215 37.8896L50.7014 34.2104L48.9204 33.3004L47.0406 36.9796L48.8215 37.8896ZM50.8109 33.7554V26.2627H48.8109V33.7554H50.8109ZM50.704 25.8128L48.8779 22.1873L47.0917 23.0871L48.9178 26.7126L50.704 25.8128ZM48.4293 21.7415L44.8038 19.9421L43.9147 21.7336L47.5402 23.533L48.4293 21.7415ZM44.3593 19.8379H40.6264V21.8379H44.3593V19.8379ZM41.6264 20.8379V19.9517H39.6264V20.8379H41.6264ZM40.6264 20.9517H44.3593V18.9517H40.6264V20.9517ZM44.8143 20.8422L48.4935 18.9623L47.5835 17.1813L43.9043 19.0612L44.8143 20.8422ZM48.7456 18.7789L52.4785 15.046L51.0643 13.6318L47.3314 17.3647L48.7456 18.7789ZM52.6619 14.7939L54.5418 11.1147L52.7608 10.2047L50.8809 13.8839L52.6619 14.7939ZM54.6513 10.6597V7.00732H52.6513V10.6597H54.6513ZM54.5418 6.55233L52.6619 2.87313L50.8809 3.78312L52.7608 7.46232L54.5418 6.55233ZM52.4895 2.63215L50.7976 0.886546L49.3614 2.27849L51.0533 4.0241L52.4895 2.63215ZM50.0795 0.58252H44.5204V2.58252H50.0795V0.58252ZM44.2069 0.632931L38.5941 2.48596L39.2211 4.38514L44.8339 2.53211L44.2069 0.632931ZM38.19 2.73907L36.4176 4.56524L37.8527 5.95819L39.6252 4.13202L38.19 2.73907ZM36.2423 4.81146L34.6578 7.95354L36.4436 8.85407L38.0281 5.71198L36.2423 4.81146ZM35.5507 9.40381H39.1225V7.40381H35.5507V9.40381ZM38.1225 8.40381V13.1304H40.1225V8.40381H38.1225ZM39.1225 12.1304H34.3959V14.1304H39.1225V12.1304ZM35.3959 13.1304V8.72607H33.3959V13.1304H35.3959ZM35.2927 9.1685L37.28 5.14018L35.4864 4.25533L33.4991 8.28365L35.2927 9.1685ZM37.0763 5.41859L39.171 3.40443L37.7848 1.96276L35.6901 3.97692L37.0763 5.41859ZM38.7954 3.63185L44.7305 1.64454L44.0955 -0.251964L38.1604 1.73534L38.7954 3.63185ZM44.4041 1.69625L50.4466 1.74996L50.4644 -0.24996L44.4219 -0.303671L44.4041 1.69625ZM50.1431 1.69998L56.0245 3.63357L56.6491 1.73362L50.7678 -0.199977L50.1431 1.69998ZM55.4412 3.12846L57.4822 7.23735L59.2734 6.34761L57.2324 2.23872L55.4412 3.12846ZM57.3778 6.79248V10.8745H59.3778V6.79248H57.3778Z" fill="#B3B3B3" mask="url(#path-1-outside-1_195_1912)"/>
</svg>
