<svg width="59" height="42" viewBox="0 0 59 42" fill="none" xmlns="http://www.w3.org/2000/svg">
<mask id="path-1-outside-1_488_162" maskUnits="userSpaceOnUse" x="-1" y="-1" width="61" height="44" fill="black">
<rect fill="white" x="-1" y="-1" width="61" height="44"/>
<path d="M30.2612 16.5947L28.3276 24.356L26.3672 30.2373L22.4463 36.0649L18.4985 40.0127L12.5635 42H8.53516L4.53369 40.0127L2.49268 37.918L0.505371 31.9829V26.1016L2.43896 18.3403L4.39941 12.459L8.32031 6.63135L12.2681 2.68359L18.2031 0.696289H22.2314L26.2598 2.68359L28.2739 4.77832L30.2612 10.7134V16.5947ZM25.5347 16.4873V7.00732L23.6548 3.32812L21.9629 1.58252H18.3911L14.7388 3.73096L10.9521 9.04834L9.01855 12.8618L7.16553 18.582L5.23193 26.209V35.6621L7.11182 39.3682L8.80371 41.1138H12.3755L16.0815 39.3145L19.8145 33.6479L21.748 29.8345L23.6011 24.1143L25.5347 16.4873ZM58.539 0.696289L50.2943 29.5659H57.9481V30.4521H50.0258L46.7226 42H41.9423L45.3529 30.4521H26.0438L57.7602 0.696289H58.539ZM52.2279 7.1416L28.246 29.5659H45.6215L52.2279 7.1416Z"/>
</mask>
<path d="M30.2612 16.5947L28.3276 24.356L26.3672 30.2373L22.4463 36.0649L18.4985 40.0127L12.5635 42H8.53516L4.53369 40.0127L2.49268 37.918L0.505371 31.9829V26.1016L2.43896 18.3403L4.39941 12.459L8.32031 6.63135L12.2681 2.68359L18.2031 0.696289H22.2314L26.2598 2.68359L28.2739 4.77832L30.2612 10.7134V16.5947ZM25.5347 16.4873V7.00732L23.6548 3.32812L21.9629 1.58252H18.3911L14.7388 3.73096L10.9521 9.04834L9.01855 12.8618L7.16553 18.582L5.23193 26.209V35.6621L7.11182 39.3682L8.80371 41.1138H12.3755L16.0815 39.3145L19.8145 33.6479L21.748 29.8345L23.6011 24.1143L25.5347 16.4873ZM58.539 0.696289L50.2943 29.5659H57.9481V30.4521H50.0258L46.7226 42H41.9423L45.3529 30.4521H26.0438L57.7602 0.696289H58.539ZM52.2279 7.1416L28.246 29.5659H45.6215L52.2279 7.1416Z" fill="#D9D9D9"/>
<path d="M30.2612 16.5947L31.2316 16.8365L31.2612 16.7174V16.5947H30.2612ZM28.3276 24.356L29.2763 24.6722L29.2886 24.6354L29.298 24.5977L28.3276 24.356ZM26.3672 30.2373L27.1969 30.7955L27.2728 30.6826L27.3159 30.5535L26.3672 30.2373ZM22.4463 36.0649L23.1534 36.772L23.2219 36.7035L23.276 36.6232L22.4463 36.0649ZM18.4985 40.0127L18.816 40.9609L19.0392 40.8862L19.2056 40.7198L18.4985 40.0127ZM12.5635 42V43H12.7265L12.881 42.9483L12.5635 42ZM8.53516 42L8.09035 42.8956L8.30051 43H8.53516V42ZM4.53369 40.0127L3.81746 40.7106L3.93633 40.8326L4.08888 40.9083L4.53369 40.0127ZM2.49268 37.918L1.54442 38.2355L1.61698 38.4522L1.77645 38.6158L2.49268 37.918ZM0.505371 31.9829H-0.494629V32.1459L-0.442882 32.3004L0.505371 31.9829ZM0.505371 26.1016L-0.464969 25.8598L-0.494629 25.9789V26.1016H0.505371ZM2.43896 18.3403L1.49028 18.0241L1.47801 18.0609L1.46863 18.0986L2.43896 18.3403ZM4.39941 12.459L3.56972 11.9008L3.49376 12.0137L3.45073 12.1428L4.39941 12.459ZM8.32031 6.63135L7.61321 5.92424L7.5447 5.99274L7.49062 6.07312L8.32031 6.63135ZM12.2681 2.68359L11.9506 1.73534L11.7274 1.81007L11.561 1.97649L12.2681 2.68359ZM18.2031 0.696289V-0.303711H18.0402L17.8856 -0.251964L18.2031 0.696289ZM22.2314 0.696289L22.6739 -0.200517L22.4647 -0.303711H22.2314V0.696289ZM26.2598 2.68359L26.9806 1.99049L26.8592 1.86426L26.7022 1.78679L26.2598 2.68359ZM28.2739 4.77832L29.2222 4.46081L29.1507 4.24742L28.9948 4.08521L28.2739 4.77832ZM30.2612 10.7134H31.2612V10.5504L31.2095 10.3959L30.2612 10.7134ZM25.5347 16.4873L26.504 16.7331L26.5347 16.6121V16.4873H25.5347ZM25.5347 7.00732H26.5347V6.76665L26.4252 6.55233L25.5347 7.00732ZM23.6548 3.32812L24.5453 2.87313L24.4771 2.73972L24.3729 2.63215L23.6548 3.32812ZM21.9629 1.58252L22.681 0.886546L22.3863 0.58252H21.9629V1.58252ZM18.3911 1.58252V0.58252H18.1188L17.8841 0.720585L18.3911 1.58252ZM14.7388 3.73096L14.2317 2.86902L14.0479 2.97716L13.9242 3.15089L14.7388 3.73096ZM10.9521 9.04834L10.1376 8.46827L10.0941 8.52929L10.0602 8.59611L10.9521 9.04834ZM9.01855 12.8618L8.12665 12.4096L8.09131 12.4793L8.06723 12.5536L9.01855 12.8618ZM7.16553 18.582L6.2142 18.2739L6.20418 18.3048L6.19619 18.3363L7.16553 18.582ZM5.23193 26.209L4.2626 25.9632L4.23193 26.0842V26.209H5.23193ZM5.23193 35.6621H4.23193V35.9012L4.34011 36.1145L5.23193 35.6621ZM7.11182 39.3682L6.21999 39.8205L6.28844 39.9555L6.39375 40.0641L7.11182 39.3682ZM8.80371 41.1138L8.08564 41.8097L8.38032 42.1138H8.80371V41.1138ZM12.3755 41.1138V42.1138H12.6054L12.8122 42.0134L12.3755 41.1138ZM16.0815 39.3145L16.5183 40.214L16.7655 40.094L16.9166 39.8646L16.0815 39.3145ZM19.8145 33.6479L20.6495 34.1981L20.6807 34.1507L20.7064 34.1002L19.8145 33.6479ZM21.748 29.8345L22.6399 30.2867L22.6753 30.217L22.6994 30.1426L21.748 29.8345ZM23.6011 24.1143L24.5524 24.4224L24.5624 24.3915L24.5704 24.36L23.6011 24.1143ZM29.2909 16.353L27.3573 24.1142L29.298 24.5977L31.2316 16.8365L29.2909 16.353ZM27.379 24.0397L25.4185 29.9211L27.3159 30.5535L29.2763 24.6722L27.379 24.0397ZM25.5375 29.6791L21.6166 35.5067L23.276 36.6232L27.1969 30.7955L25.5375 29.6791ZM21.7392 35.3578L17.7914 39.3056L19.2056 40.7198L23.1534 36.772L21.7392 35.3578ZM18.181 39.0644L12.246 41.0517L12.881 42.9483L18.816 40.9609L18.181 39.0644ZM12.5635 41H8.53516V43H12.5635V41ZM8.97996 41.1044L4.9785 39.1171L4.08888 40.9083L8.09035 42.8956L8.97996 41.1044ZM5.24992 39.3148L3.20891 37.2201L1.77645 38.6158L3.81746 40.7106L5.24992 39.3148ZM3.44093 37.6005L1.45362 31.6654L-0.442882 32.3004L1.54442 38.2355L3.44093 37.6005ZM1.50537 31.9829V26.1016H-0.494629V31.9829H1.50537ZM1.47571 26.3433L3.4093 18.5821L1.46863 18.0986L-0.464969 25.8598L1.47571 26.3433ZM3.38765 18.6566L5.3481 12.7752L3.45073 12.1428L1.49028 18.0241L3.38765 18.6566ZM5.2291 13.0172L9.15 7.18957L7.49062 6.07312L3.56972 11.9008L5.2291 13.0172ZM9.02742 7.33845L12.9752 3.3907L11.561 1.97649L7.61321 5.92424L9.02742 7.33845ZM12.5856 3.63185L18.5206 1.64454L17.8856 -0.251964L11.9506 1.73534L12.5856 3.63185ZM18.2031 1.69629H22.2314V-0.303711H18.2031V1.69629ZM21.789 1.59309L25.8173 3.5804L26.7022 1.78679L22.6739 -0.200517L21.789 1.59309ZM25.5389 3.3767L27.5531 5.47143L28.9948 4.08521L26.9806 1.99049L25.5389 3.3767ZM27.3257 5.09584L29.313 11.0309L31.2095 10.3959L29.2222 4.46081L27.3257 5.09584ZM29.2612 10.7134V16.5947H31.2612V10.7134H29.2612ZM26.5347 16.4873V7.00732H24.5347V16.4873H26.5347ZM26.4252 6.55233L24.5453 2.87313L22.7643 3.78312L24.6442 7.46232L26.4252 6.55233ZM24.3729 2.63215L22.681 0.886546L21.2448 2.27849L22.9367 4.0241L24.3729 2.63215ZM21.9629 0.58252H18.3911V2.58252H21.9629V0.58252ZM17.8841 0.720585L14.2317 2.86902L15.2458 4.59289L18.8981 2.44445L17.8841 0.720585ZM13.9242 3.15089L10.1376 8.46827L11.7667 9.62841L15.5533 4.31103L13.9242 3.15089ZM10.0602 8.59611L8.12665 12.4096L9.91046 13.314L11.844 9.50057L10.0602 8.59611ZM8.06723 12.5536L6.2142 18.2739L8.11686 18.8902L9.96988 13.17L8.06723 12.5536ZM6.19619 18.3363L4.2626 25.9632L6.20127 26.4547L8.13486 18.8278L6.19619 18.3363ZM4.23193 26.209V35.6621H6.23193V26.209H4.23193ZM4.34011 36.1145L6.21999 39.8205L8.00364 38.9158L6.12376 35.2097L4.34011 36.1145ZM6.39375 40.0641L8.08564 41.8097L9.52178 40.4178L7.82988 38.6722L6.39375 40.0641ZM8.80371 42.1138H12.3755V40.1138H8.80371V42.1138ZM12.8122 42.0134L16.5183 40.214L15.6448 38.4149L11.9387 40.2142L12.8122 42.0134ZM16.9166 39.8646L20.6495 34.1981L18.9794 33.0978L15.2465 38.7643L16.9166 39.8646ZM20.7064 34.1002L22.6399 30.2867L20.8561 29.3822L18.9226 33.1957L20.7064 34.1002ZM22.6994 30.1426L24.5524 24.4224L22.6497 23.8061L20.7967 29.5263L22.6994 30.1426ZM24.5704 24.36L26.504 16.7331L24.5653 16.2416L22.6317 23.8685L24.5704 24.36ZM58.539 0.696289L59.5005 0.970892L59.8645 -0.303711H58.539V0.696289ZM50.2943 29.5659L49.3328 29.2913L48.9688 30.5659H50.2943V29.5659ZM57.9481 29.5659H58.9481V28.5659H57.9481V29.5659ZM57.9481 30.4521V31.4521H58.9481V30.4521H57.9481ZM50.0258 30.4521V29.4521H49.2717L49.0643 30.1771L50.0258 30.4521ZM46.7226 42V43H47.4766L47.684 42.275L46.7226 42ZM41.9423 42L40.9832 41.7167L40.6042 43H41.9423V42ZM45.3529 30.4521L46.312 30.7354L46.691 29.4521H45.3529V30.4521ZM26.0438 30.4521L25.3596 29.7229L23.5164 31.4521H26.0438V30.4521ZM57.7602 0.696289V-0.303711H57.3645L57.0759 -0.0329977L57.7602 0.696289ZM52.2279 7.1416L53.1872 7.4242L54.2235 3.90659L51.5449 6.41117L52.2279 7.1416ZM28.246 29.5659L27.563 28.8355L25.7124 30.5659H28.246V29.5659ZM45.6215 29.5659V30.5659H46.3694L46.5807 29.8485L45.6215 29.5659ZM57.5774 0.421686L49.3328 29.2913L51.2559 29.8405L59.5005 0.970892L57.5774 0.421686ZM50.2943 30.5659H57.9481V28.5659H50.2943V30.5659ZM56.9481 29.5659V30.4521H58.9481V29.5659H56.9481ZM57.9481 29.4521H50.0258V31.4521H57.9481V29.4521ZM49.0643 30.1771L45.7611 41.725L47.684 42.275L50.9872 30.7272L49.0643 30.1771ZM46.7226 41H41.9423V43H46.7226V41ZM42.9013 42.2833L46.312 30.7354L44.3939 30.1689L40.9832 41.7167L42.9013 42.2833ZM45.3529 29.4521H26.0438V31.4521H45.3529V29.4521ZM26.7281 31.1814L58.4444 1.42558L57.0759 -0.0329977L25.3596 29.7229L26.7281 31.1814ZM57.7602 1.69629H58.539V-0.303711H57.7602V1.69629ZM51.5449 6.41117L27.563 28.8355L28.929 30.2963L52.9109 7.87203L51.5449 6.41117ZM28.246 30.5659H45.6215V28.5659H28.246V30.5659ZM46.5807 29.8485L53.1872 7.4242L51.2687 6.859L44.6622 29.2833L46.5807 29.8485Z" fill="#B3B3B3" mask="url(#path-1-outside-1_488_162)"/>
</svg>
