<svg width="59" height="42" viewBox="0 0 59 42" fill="none" xmlns="http://www.w3.org/2000/svg">
<mask id="path-1-outside-1_195_2114" maskUnits="userSpaceOnUse" x="-1" y="-1" width="61" height="45" fill="black">
<rect fill="white" x="-1" y="-1" width="61" height="45"/>
<path d="M30.2612 16.5947L28.3276 24.356L26.3672 30.2373L22.4463 36.0649L18.4985 40.0127L12.5635 42H8.53516L4.53369 40.0127L2.49268 37.918L0.505371 31.9829V26.1016L2.43896 18.3403L4.39941 12.459L8.32031 6.63135L12.2681 2.68359L18.2031 0.696289H22.2314L26.2598 2.68359L28.2739 4.77832L30.2612 10.7134V16.5947ZM25.5347 16.4873V7.00732L23.6548 3.32812L21.9629 1.58252H18.3911L14.7388 3.73096L10.9521 9.04834L9.01855 12.8618L7.16553 18.582L5.23193 26.209V35.6621L7.11182 39.3682L8.80371 41.1138H12.3755L16.0815 39.3145L19.8145 33.6479L21.748 29.8345L23.6011 24.1143L25.5347 16.4873ZM58.3778 10.8745L56.3905 14.876L52.4428 18.7969L33.1874 30.3447L29.4545 34.1313L28.7294 35.4473L28.8905 35.3398H32.9726L42.5868 37.2734H51.9862L53.6513 35.6084V33.8628H54.5375V35.9575L54.4838 36.0649L52.4965 39.959L48.4145 42H42.4257L32.8114 36.2261H29.2396L27.5209 37.9717L25.5873 41.7852L24.8354 41.3286L28.6757 33.5942L32.704 29.6196L48.0385 18.1255L51.7714 14.3389L53.6513 10.6597V7.00732L51.7714 3.32812L50.0795 1.58252H44.5204L38.9076 3.43555L37.1352 5.26172L35.5507 8.40381H39.1225V13.1304H34.3959V8.72607L36.3832 4.69775L38.4779 2.68359L44.413 0.696289H50.2943L56.3368 2.68359L58.3778 6.79248V10.8745Z"/>
</mask>
<path d="M30.2612 16.5947L28.3276 24.356L26.3672 30.2373L22.4463 36.0649L18.4985 40.0127L12.5635 42H8.53516L4.53369 40.0127L2.49268 37.918L0.505371 31.9829V26.1016L2.43896 18.3403L4.39941 12.459L8.32031 6.63135L12.2681 2.68359L18.2031 0.696289H22.2314L26.2598 2.68359L28.2739 4.77832L30.2612 10.7134V16.5947ZM25.5347 16.4873V7.00732L23.6548 3.32812L21.9629 1.58252H18.3911L14.7388 3.73096L10.9521 9.04834L9.01855 12.8618L7.16553 18.582L5.23193 26.209V35.6621L7.11182 39.3682L8.80371 41.1138H12.3755L16.0815 39.3145L19.8145 33.6479L21.748 29.8345L23.6011 24.1143L25.5347 16.4873ZM58.3778 10.8745L56.3905 14.876L52.4428 18.7969L33.1874 30.3447L29.4545 34.1313L28.7294 35.4473L28.8905 35.3398H32.9726L42.5868 37.2734H51.9862L53.6513 35.6084V33.8628H54.5375V35.9575L54.4838 36.0649L52.4965 39.959L48.4145 42H42.4257L32.8114 36.2261H29.2396L27.5209 37.9717L25.5873 41.7852L24.8354 41.3286L28.6757 33.5942L32.704 29.6196L48.0385 18.1255L51.7714 14.3389L53.6513 10.6597V7.00732L51.7714 3.32812L50.0795 1.58252H44.5204L38.9076 3.43555L37.1352 5.26172L35.5507 8.40381H39.1225V13.1304H34.3959V8.72607L36.3832 4.69775L38.4779 2.68359L44.413 0.696289H50.2943L56.3368 2.68359L58.3778 6.79248V10.8745Z" fill="#D9D9D9"/>
<path d="M30.2612 16.5947L31.2316 16.8365L31.2612 16.7174V16.5947H30.2612ZM28.3276 24.356L29.2763 24.6722L29.2886 24.6354L29.298 24.5977L28.3276 24.356ZM26.3672 30.2373L27.1969 30.7955L27.2728 30.6826L27.3159 30.5535L26.3672 30.2373ZM22.4463 36.0649L23.1534 36.772L23.2219 36.7035L23.276 36.6232L22.4463 36.0649ZM18.4985 40.0127L18.816 40.9609L19.0392 40.8862L19.2056 40.7198L18.4985 40.0127ZM12.5635 42V43H12.7264L12.881 42.9483L12.5635 42ZM8.53516 42L8.09035 42.8956L8.30051 43H8.53516V42ZM4.53369 40.0127L3.81746 40.7106L3.93633 40.8326L4.08888 40.9083L4.53369 40.0127ZM2.49268 37.918L1.54442 38.2355L1.61698 38.4522L1.77645 38.6158L2.49268 37.918ZM0.505371 31.9829H-0.494629V32.1459L-0.442882 32.3004L0.505371 31.9829ZM0.505371 26.1016L-0.464969 25.8598L-0.494629 25.9789V26.1016H0.505371ZM2.43896 18.3403L1.49028 18.0241L1.47801 18.0609L1.46863 18.0986L2.43896 18.3403ZM4.39941 12.459L3.56972 11.9008L3.49376 12.0137L3.45073 12.1428L4.39941 12.459ZM8.32031 6.63135L7.61321 5.92424L7.5447 5.99274L7.49062 6.07312L8.32031 6.63135ZM12.2681 2.68359L11.9506 1.73534L11.7274 1.81007L11.561 1.97649L12.2681 2.68359ZM18.2031 0.696289V-0.303711H18.0402L17.8856 -0.251964L18.2031 0.696289ZM22.2314 0.696289L22.6739 -0.200517L22.4647 -0.303711H22.2314V0.696289ZM26.2598 2.68359L26.9806 1.99048L26.8592 1.86426L26.7022 1.78679L26.2598 2.68359ZM28.2739 4.77832L29.2222 4.46081L29.1507 4.24742L28.9948 4.08521L28.2739 4.77832ZM30.2612 10.7134H31.2612V10.5504L31.2095 10.3959L30.2612 10.7134ZM25.5347 16.4873L26.504 16.7331L26.5347 16.6121V16.4873H25.5347ZM25.5347 7.00732H26.5347V6.76665L26.4252 6.55233L25.5347 7.00732ZM23.6548 3.32812L24.5453 2.87313L24.4771 2.73972L24.3729 2.63215L23.6548 3.32812ZM21.9629 1.58252L22.681 0.886546L22.3863 0.58252H21.9629V1.58252ZM18.3911 1.58252V0.58252H18.1188L17.8841 0.720585L18.3911 1.58252ZM14.7388 3.73096L14.2317 2.86902L14.0479 2.97716L13.9242 3.15089L14.7388 3.73096ZM10.9521 9.04834L10.1376 8.46827L10.0941 8.52929L10.0602 8.59611L10.9521 9.04834ZM9.01855 12.8618L8.12665 12.4096L8.09131 12.4793L8.06723 12.5536L9.01855 12.8618ZM7.16553 18.582L6.2142 18.2739L6.20418 18.3048L6.19619 18.3363L7.16553 18.582ZM5.23193 26.209L4.2626 25.9632L4.23193 26.0842V26.209H5.23193ZM5.23193 35.6621H4.23193V35.9012L4.34011 36.1145L5.23193 35.6621ZM7.11182 39.3682L6.21999 39.8205L6.28844 39.9555L6.39375 40.0641L7.11182 39.3682ZM8.80371 41.1138L8.08564 41.8097L8.38032 42.1138H8.80371V41.1138ZM12.3755 41.1138V42.1138H12.6054L12.8122 42.0134L12.3755 41.1138ZM16.0815 39.3145L16.5183 40.214L16.7655 40.094L16.9166 39.8646L16.0815 39.3145ZM19.8145 33.6479L20.6495 34.1981L20.6807 34.1507L20.7064 34.1002L19.8145 33.6479ZM21.748 29.8345L22.6399 30.2867L22.6753 30.217L22.6994 30.1427L21.748 29.8345ZM23.6011 24.1143L24.5524 24.4224L24.5624 24.3915L24.5704 24.36L23.6011 24.1143ZM29.2909 16.353L27.3573 24.1142L29.298 24.5977L31.2316 16.8365L29.2909 16.353ZM27.379 24.0397L25.4185 29.9211L27.3159 30.5535L29.2763 24.6722L27.379 24.0397ZM25.5375 29.6791L21.6166 35.5067L23.276 36.6232L27.1969 30.7955L25.5375 29.6791ZM21.7392 35.3578L17.7914 39.3056L19.2056 40.7198L23.1534 36.772L21.7392 35.3578ZM18.181 39.0644L12.246 41.0517L12.881 42.9483L18.816 40.9609L18.181 39.0644ZM12.5635 41H8.53516V43H12.5635V41ZM8.97996 41.1044L4.9785 39.1171L4.08888 40.9083L8.09035 42.8956L8.97996 41.1044ZM5.24992 39.3148L3.20891 37.2201L1.77645 38.6158L3.81746 40.7106L5.24992 39.3148ZM3.44093 37.6005L1.45362 31.6654L-0.442882 32.3004L1.54442 38.2355L3.44093 37.6005ZM1.50537 31.9829V26.1016H-0.494629V31.9829H1.50537ZM1.47571 26.3433L3.4093 18.5821L1.46863 18.0986L-0.464969 25.8598L1.47571 26.3433ZM3.38765 18.6566L5.3481 12.7752L3.45073 12.1428L1.49028 18.0241L3.38765 18.6566ZM5.2291 13.0172L9.15 7.18957L7.49062 6.07312L3.56972 11.9008L5.2291 13.0172ZM9.02742 7.33845L12.9752 3.3907L11.561 1.97649L7.61321 5.92424L9.02742 7.33845ZM12.5856 3.63185L18.5206 1.64454L17.8856 -0.251964L11.9506 1.73534L12.5856 3.63185ZM18.2031 1.69629H22.2314V-0.303711H18.2031V1.69629ZM21.789 1.5931L25.8173 3.5804L26.7022 1.78679L22.6739 -0.200517L21.789 1.5931ZM25.5389 3.3767L27.5531 5.47143L28.9948 4.08521L26.9806 1.99048L25.5389 3.3767ZM27.3257 5.09584L29.313 11.0309L31.2095 10.3959L29.2222 4.46081L27.3257 5.09584ZM29.2612 10.7134V16.5947H31.2612V10.7134H29.2612ZM26.5347 16.4873V7.00732H24.5347V16.4873H26.5347ZM26.4252 6.55233L24.5453 2.87313L22.7643 3.78312L24.6442 7.46232L26.4252 6.55233ZM24.3729 2.63215L22.681 0.886546L21.2448 2.27849L22.9367 4.0241L24.3729 2.63215ZM21.9629 0.58252H18.3911V2.58252H21.9629V0.58252ZM17.8841 0.720585L14.2317 2.86902L15.2458 4.59289L18.8981 2.44445L17.8841 0.720585ZM13.9242 3.15089L10.1376 8.46827L11.7667 9.62841L15.5533 4.31103L13.9242 3.15089ZM10.0602 8.59611L8.12665 12.4096L9.91046 13.314L11.844 9.50057L10.0602 8.59611ZM8.06723 12.5536L6.2142 18.2739L8.11686 18.8902L9.96988 13.17L8.06723 12.5536ZM6.19619 18.3363L4.2626 25.9632L6.20127 26.4547L8.13486 18.8278L6.19619 18.3363ZM4.23193 26.209V35.6621H6.23193V26.209H4.23193ZM4.34011 36.1145L6.21999 39.8205L8.00364 38.9158L6.12376 35.2097L4.34011 36.1145ZM6.39375 40.0641L8.08564 41.8097L9.52178 40.4178L7.82988 38.6722L6.39375 40.0641ZM8.80371 42.1138H12.3755V40.1138H8.80371V42.1138ZM12.8122 42.0134L16.5183 40.214L15.6448 38.4149L11.9387 40.2142L12.8122 42.0134ZM16.9166 39.8646L20.6495 34.1981L18.9794 33.0978L15.2465 38.7643L16.9166 39.8646ZM20.7064 34.1002L22.6399 30.2867L20.8561 29.3822L18.9226 33.1957L20.7064 34.1002ZM22.6994 30.1427L24.5524 24.4224L22.6497 23.8061L20.7967 29.5263L22.6994 30.1427ZM24.5704 24.36L26.504 16.7331L24.5653 16.2416L22.6317 23.8685L24.5704 24.36ZM58.3778 10.8745L59.2735 11.3193L59.3778 11.1092V10.8745H58.3778ZM56.3905 14.876L57.0952 15.5855L57.2126 15.4689L57.2862 15.3208L56.3905 14.876ZM52.4428 18.7969L52.9571 19.6545L53.0613 19.592L53.1475 19.5064L52.4428 18.7969ZM33.1874 30.3447L32.6731 29.4871L32.5643 29.5524L32.4753 29.6427L33.1874 30.3447ZM29.4545 34.1313L28.7424 33.4293L28.6453 33.5277L28.5787 33.6487L29.4545 34.1313ZM28.7294 35.4473L27.8536 34.9647L29.2841 36.2793L28.7294 35.4473ZM28.8905 35.3398V34.3398H28.5878L28.3358 34.5078L28.8905 35.3398ZM32.9726 35.3398L33.1697 34.3595L33.0721 34.3398H32.9726V35.3398ZM42.5868 37.2734L42.3896 38.2538L42.4873 38.2734H42.5868V37.2734ZM51.9862 37.2734V38.2734H52.4004L52.6933 37.9805L51.9862 37.2734ZM53.6513 35.6084L54.3584 36.3155L54.6513 36.0226V35.6084H53.6513ZM53.6513 33.8628V32.8628H52.6513V33.8628H53.6513ZM54.5375 33.8628H55.5375V32.8628H54.5375V33.8628ZM54.5375 35.9575L55.4319 36.4047L55.5375 36.1936V35.9575H54.5375ZM54.4838 36.0649L55.3745 36.5195L55.3782 36.5122L54.4838 36.0649ZM52.4965 39.959L52.9437 40.8534L53.2378 40.7064L53.3872 40.4136L52.4965 39.959ZM48.4145 42V43H48.6505L48.8617 42.8944L48.4145 42ZM42.4257 42L41.9108 42.8573L42.1485 43H42.4257V42ZM32.8114 36.2261L33.3263 35.3688L33.0886 35.2261H32.8114V36.2261ZM29.2396 36.2261V35.2261H28.8209L28.5271 35.5245L29.2396 36.2261ZM27.5209 37.9717L26.8083 37.2701L26.6993 37.3808L26.629 37.5194L27.5209 37.9717ZM25.5873 41.7852L25.0683 42.6399L25.991 43.2002L26.4792 42.2374L25.5873 41.7852ZM24.8354 41.3286L23.9397 40.8839L23.5312 41.7067L24.3164 42.1834L24.8354 41.3286ZM28.6757 33.5942L27.9733 32.8824L27.8544 32.9998L27.78 33.1495L28.6757 33.5942ZM32.704 29.6196L32.1042 28.8195L32.0499 28.8601L32.0017 28.9078L32.704 29.6196ZM48.0385 18.1255L48.6383 18.9257L48.6981 18.8808L48.7506 18.8275L48.0385 18.1255ZM51.7714 14.3389L52.4835 15.0409L52.5917 14.9311L52.6619 14.7939L51.7714 14.3389ZM53.6513 10.6597L54.5418 11.1147L54.6513 10.9003V10.6597H53.6513ZM53.6513 7.00732H54.6513V6.76665L54.5418 6.55233L53.6513 7.00732ZM51.7714 3.32812L52.6619 2.87313L52.5937 2.73972L52.4895 2.63215L51.7714 3.32812ZM50.0795 1.58252L50.7976 0.886546L50.5029 0.58252H50.0795V1.58252ZM44.5204 1.58252V0.58252H44.3596L44.2069 0.632931L44.5204 1.58252ZM38.9076 3.43555L38.5941 2.48596L38.361 2.56292L38.19 2.73907L38.9076 3.43555ZM37.1352 5.26172L36.4176 4.56524L36.3111 4.67495L36.2423 4.81146L37.1352 5.26172ZM35.5507 8.40381L34.6578 7.95354L33.9265 9.40381H35.5507V8.40381ZM39.1225 8.40381H40.1225V7.40381H39.1225V8.40381ZM39.1225 13.1304V14.1304H40.1225V13.1304H39.1225ZM34.3959 13.1304H33.3959V14.1304H34.3959V13.1304ZM34.3959 8.72607L33.4991 8.28365L33.3959 8.49283V8.72607H34.3959ZM36.3832 4.69775L35.6901 3.97692L35.5639 4.09829L35.4864 4.25533L36.3832 4.69775ZM38.4779 2.68359L38.1604 1.73534L37.947 1.80679L37.7848 1.96276L38.4779 2.68359ZM44.413 0.696289V-0.303711H44.25L44.0955 -0.251964L44.413 0.696289ZM50.2943 0.696289L50.6068 -0.253653L50.4546 -0.303711H50.2943V0.696289ZM56.3368 2.68359L57.2324 2.23872L57.0464 1.86428L56.6492 1.73365L56.3368 2.68359ZM58.3778 6.79248H59.3778V6.55779L59.2734 6.34761L58.3778 6.79248ZM57.4822 10.4297L55.4949 14.4312L57.2862 15.3208L59.2735 11.3193L57.4822 10.4297ZM55.6858 14.1665L51.7381 18.0874L53.1475 19.5064L57.0952 15.5855L55.6858 14.1665ZM51.9285 17.9393L32.6731 29.4871L33.7017 31.2023L52.9571 19.6545L51.9285 17.9393ZM32.4753 29.6427L28.7424 33.4293L30.1666 34.8334L33.8995 31.0468L32.4753 29.6427ZM28.5787 33.6487L27.8536 34.9647L29.6052 35.9299L30.3303 34.614L28.5787 33.6487ZM29.2841 36.2793L29.4452 36.1719L28.3358 34.5078L28.1747 34.6152L29.2841 36.2793ZM28.8905 36.3398H32.9726V34.3398H28.8905V36.3398ZM32.7754 36.3202L42.3896 38.2538L42.784 36.2931L33.1697 34.3595L32.7754 36.3202ZM42.5868 38.2734H51.9862V36.2734H42.5868V38.2734ZM52.6933 37.9805L54.3584 36.3155L52.9442 34.9013L51.2791 36.5663L52.6933 37.9805ZM54.6513 35.6084V33.8628H52.6513V35.6084H54.6513ZM53.6513 34.8628H54.5375V32.8628H53.6513V34.8628ZM53.5375 33.8628V35.9575H55.5375V33.8628H53.5375ZM53.6431 35.5103L53.5894 35.6177L55.3782 36.5122L55.4319 36.4047L53.6431 35.5103ZM53.5931 35.6104L51.6058 39.5044L53.3872 40.4136L55.3745 36.5195L53.5931 35.6104ZM52.0493 39.0646L47.9672 41.1056L48.8617 42.8944L52.9437 40.8534L52.0493 39.0646ZM48.4145 41H42.4257V43H48.4145V41ZM42.9405 41.1427L33.3263 35.3688L32.2966 37.0834L41.9108 42.8573L42.9405 41.1427ZM32.8114 35.2261H29.2396V37.2261H32.8114V35.2261ZM28.5271 35.5245L26.8083 37.2701L28.2335 38.6733L29.9522 36.9277L28.5271 35.5245ZM26.629 37.5194L24.6954 41.3329L26.4792 42.2374L28.4128 38.4239L26.629 37.5194ZM26.1063 40.9304L25.3543 40.4738L24.3164 42.1834L25.0683 42.6399L26.1063 40.9304ZM25.731 41.7733L29.5714 34.039L27.78 33.1495L23.9397 40.8839L25.731 41.7733ZM29.378 34.3061L33.4063 30.3315L32.0017 28.9078L27.9733 32.8824L29.378 34.3061ZM33.3038 30.4198L48.6383 18.9257L47.4387 17.3253L32.1042 28.8195L33.3038 30.4198ZM48.7506 18.8275L52.4835 15.0409L51.0592 13.6368L47.3263 17.4235L48.7506 18.8275ZM52.6619 14.7939L54.5418 11.1147L52.7608 10.2047L50.8809 13.8839L52.6619 14.7939ZM54.6513 10.6597V7.00732H52.6513V10.6597H54.6513ZM54.5418 6.55233L52.6619 2.87313L50.8809 3.78312L52.7608 7.46232L54.5418 6.55233ZM52.4895 2.63215L50.7976 0.886546L49.3614 2.27849L51.0533 4.0241L52.4895 2.63215ZM50.0795 0.58252H44.5204V2.58252H50.0795V0.58252ZM44.2069 0.632931L38.5941 2.48596L39.2211 4.38514L44.8339 2.53211L44.2069 0.632931ZM38.19 2.73907L36.4176 4.56524L37.8527 5.95819L39.6252 4.13202L38.19 2.73907ZM36.2423 4.81146L34.6578 7.95354L36.4436 8.85407L38.0281 5.71198L36.2423 4.81146ZM35.5507 9.40381H39.1225V7.40381H35.5507V9.40381ZM38.1225 8.40381V13.1304H40.1225V8.40381H38.1225ZM39.1225 12.1304H34.3959V14.1304H39.1225V12.1304ZM35.3959 13.1304V8.72607H33.3959V13.1304H35.3959ZM35.2927 9.1685L37.28 5.14018L35.4864 4.25533L33.4991 8.28365L35.2927 9.1685ZM37.0763 5.41859L39.171 3.40443L37.7848 1.96276L35.6901 3.97692L37.0763 5.41859ZM38.7954 3.63185L44.7305 1.64454L44.0955 -0.251964L38.1604 1.73534L38.7954 3.63185ZM44.413 1.69629H50.2943V-0.303711H44.413V1.69629ZM49.9819 1.64623L56.0244 3.63354L56.6492 1.73365L50.6068 -0.253653L49.9819 1.64623ZM55.4412 3.12846L57.4822 7.23735L59.2734 6.34761L57.2324 2.23872L55.4412 3.12846ZM57.3778 6.79248V10.8745H59.3778V6.79248H57.3778Z" fill="#B3B3B3" mask="url(#path-1-outside-1_195_2114)"/>
</svg>
