<svg width="40" height="38" viewBox="0 0 54 38" fill="none" xmlns="http://www.w3.org/2000/svg">
<path fill-rule="evenodd" clip-rule="evenodd" d="M3.1644 2.7835C-3.21865e-07 5.56462 0 10.0439 0 19C0 27.9561 -3.21865e-07 32.4354 3.1644 35.2165C6.3261 38 11.4183 38 21.6 38H32.4C42.5817 38 47.6739 38 50.8356 35.2165C54 32.4354 54 27.9561 54 19C54 10.0439 54 5.56462 50.8356 2.7835C47.6739 -2.83122e-07 42.5817 0 32.4 0H21.6C11.4183 0 6.3261 -2.83122e-07 3.1644 2.7835ZM44.7552 8.36C45.0988 8.72287 45.2645 9.1909 45.2159 9.6612C45.1673 10.1315 44.9083 10.5656 44.496 10.868L38.5668 15.2143C36.1719 16.9718 34.2333 18.392 32.5188 19.361C30.7368 20.3704 29.0007 21.0069 27 21.0069C24.9993 21.0069 23.2632 20.368 21.4785 19.361C19.7667 18.392 17.8281 16.9694 15.4332 15.2166L9.504 10.8704C9.09118 10.568 8.83181 10.1338 8.78294 9.66325C8.73408 9.19268 8.89973 8.72432 9.24345 8.36119C9.58717 7.99806 10.0808 7.76991 10.6158 7.72692C11.1507 7.68394 11.6832 7.82965 12.096 8.132L17.928 12.4046C20.4471 14.25 22.194 15.5278 23.6736 16.3638C25.1019 17.1713 26.0712 17.4444 27.0027 17.4444C27.9342 17.4444 28.9035 17.1736 30.3318 16.3638C31.8087 15.5278 33.5583 14.25 36.0774 12.4046L41.9067 8.12962C42.3196 7.82768 42.8519 7.68234 43.3865 7.72554C43.9212 7.76874 44.4118 7.99695 44.7552 8.36Z" fill="#F6CDB7"/>
</svg>
