<svg width="59" height="25" viewBox="0 0 59 25" fill="none" xmlns="http://www.w3.org/2000/svg">
<path d="M0 2C0 0.89543 0.895431 0 2 0H57C58.1046 0 59 0.89543 59 2V23C59 24.1046 58.1046 25 57 25H2C0.89543 25 0 24.1046 0 23V2Z" fill="#70D9F3"/>
<path d="M18.1982 11.8203H19.8193C20.2555 11.8203 20.5908 11.7129 20.8252 11.498C21.0596 11.2832 21.1768 10.974 21.1768 10.5703C21.1768 10.2122 21.0563 9.92578 20.8154 9.71094C20.5745 9.48958 20.2327 9.37891 19.79 9.37891H18.1982V11.8203ZM16.9092 16V8.27539H20.0342C20.8285 8.27539 21.4372 8.48372 21.8604 8.90039C22.29 9.31706 22.5049 9.83789 22.5049 10.4629C22.5049 10.9902 22.3877 11.4199 22.1533 11.752C21.9189 12.084 21.6488 12.3086 21.3428 12.4258C21.5902 12.5951 21.766 12.7741 21.8701 12.9629C21.9743 13.1517 22.0622 13.4382 22.1338 13.8223C22.29 14.5905 22.57 15.3164 22.9736 16H21.5381C21.2191 15.4596 20.9684 14.7663 20.7861 13.9199C20.7145 13.5879 20.6071 13.3372 20.4639 13.168C20.3271 12.9987 20.109 12.9141 19.8096 12.9141H18.1982V16H16.9092ZM23.4033 13.1582C23.4033 12.2533 23.6507 11.5339 24.1455 11C24.6468 10.4596 25.2751 10.1895 26.0303 10.1895C26.7725 10.1895 27.3844 10.4596 27.8662 11C28.348 11.5404 28.5889 12.2435 28.5889 13.1094C28.5889 13.2786 28.5791 13.4447 28.5596 13.6074H24.6533C24.6533 14.0371 24.7803 14.4082 25.0342 14.7207C25.2946 15.0267 25.6494 15.1797 26.0986 15.1797C26.4111 15.1797 26.6846 15.1048 26.9189 14.9551C27.1598 14.7988 27.3421 14.6003 27.4658 14.3594L28.501 14.7109C28.3187 15.1276 28.0225 15.4759 27.6123 15.7559C27.2021 16.0358 26.6911 16.1758 26.0791 16.1758C25.2913 16.1758 24.6468 15.9023 24.1455 15.3555C23.6507 14.8086 23.4033 14.0762 23.4033 13.1582ZM24.6729 12.7383H27.3291C27.3291 12.3086 27.2152 11.944 26.9873 11.6445C26.7594 11.3385 26.4404 11.1855 26.0303 11.1855C25.6201 11.1855 25.2913 11.3418 25.0439 11.6543C24.8031 11.9603 24.6794 12.3216 24.6729 12.7383ZM30.5127 14.418C30.5127 14.6263 30.5941 14.8021 30.7568 14.9453C30.9261 15.082 31.1475 15.1504 31.4209 15.1504C31.8115 15.1504 32.1436 15.0202 32.417 14.7598C32.6969 14.4993 32.8369 14.1576 32.8369 13.7344V13.2168C32.5374 13.2884 32.1761 13.3568 31.7529 13.4219C30.9261 13.5521 30.5127 13.8841 30.5127 14.418ZM29.2627 14.5254C29.2627 13.4642 30.0505 12.8164 31.626 12.582C32.1989 12.4974 32.6025 12.4193 32.8369 12.3477V12.0449C32.8369 11.7715 32.7393 11.5566 32.5439 11.4004C32.3486 11.2441 32.0882 11.166 31.7627 11.166C31.1442 11.166 30.6104 11.4199 30.1611 11.9277L29.4092 11.2832C29.7021 10.9382 30.0505 10.6712 30.4541 10.4824C30.8643 10.2871 31.2939 10.1895 31.7432 10.1895C32.583 10.1895 33.182 10.3945 33.54 10.8047C33.8981 11.2083 34.0771 11.7747 34.0771 12.5039V16H32.876V15.2969C32.7588 15.5378 32.5537 15.7461 32.2607 15.9219C31.9743 16.0911 31.6357 16.1758 31.2451 16.1758C30.6266 16.1758 30.1416 16.0228 29.79 15.7168C29.4385 15.4108 29.2627 15.0137 29.2627 14.5254ZM35.0244 13.1875C35.0244 12.2826 35.2653 11.5566 35.7471 11.0098C36.2354 10.4629 36.8636 10.1895 37.6318 10.1895C38.1917 10.1895 38.6637 10.3587 39.0479 10.6973C39.432 11.0358 39.6729 11.4232 39.7705 11.8594L38.7158 12.1523C38.6377 11.9049 38.5042 11.6934 38.3154 11.5176C38.1266 11.3353 37.902 11.2441 37.6416 11.2441C37.2184 11.2441 36.8864 11.4297 36.6455 11.8008C36.4111 12.1719 36.2939 12.6341 36.2939 13.1875C36.2939 13.7995 36.4209 14.2747 36.6748 14.6133C36.9287 14.9518 37.251 15.1211 37.6416 15.1211C37.9281 15.1211 38.1787 15.0234 38.3936 14.8281C38.6149 14.6263 38.7679 14.3984 38.8525 14.1445L39.9072 14.4473C39.7835 14.903 39.5133 15.3066 39.0967 15.6582C38.68 16.0033 38.1917 16.1758 37.6318 16.1758C36.8636 16.1758 36.2354 15.9056 35.7471 15.3652C35.2653 14.8184 35.0244 14.0924 35.0244 13.1875ZM40.2686 11.4199V10.3652H41.1377V8.69531H42.3682V10.3652H43.6572V11.4199H42.3682V14.1934C42.3682 14.4603 42.4202 14.6523 42.5244 14.7695C42.6351 14.8867 42.8011 14.9453 43.0225 14.9453H43.667V16H42.8662C41.7139 16 41.1377 15.4271 41.1377 14.2812V11.4199H40.2686Z" fill="white"/>
</svg>
