<svg width="75" height="25" viewBox="0 0 75 25" fill="none" xmlns="http://www.w3.org/2000/svg">
<rect width="75" height="25" rx="2" fill="#F3DB15"/>
<path d="M12.0879 14.5645L13.1523 14.1348C13.2305 14.4017 13.3607 14.6263 13.543 14.8086C13.7318 14.9844 13.9596 15.0723 14.2266 15.0723C14.5521 15.0723 14.8027 14.9486 14.9785 14.7012C15.1543 14.4538 15.2422 14.0957 15.2422 13.627V8.27539H16.5312V13.8027C16.5312 14.5579 16.3327 15.1439 15.9355 15.5605C15.5449 15.9707 14.985 16.1758 14.2559 16.1758C13.6634 16.1758 13.1849 16.0195 12.8203 15.707C12.4622 15.3945 12.2181 15.0137 12.0879 14.5645ZM18.9824 14.418C18.9824 14.6263 19.0638 14.8021 19.2266 14.9453C19.3958 15.082 19.6172 15.1504 19.8906 15.1504C20.2812 15.1504 20.6133 15.0202 20.8867 14.7598C21.1667 14.4993 21.3066 14.1576 21.3066 13.7344V13.2168C21.0072 13.2884 20.6458 13.3568 20.2227 13.4219C19.3958 13.5521 18.9824 13.8841 18.9824 14.418ZM17.7324 14.5254C17.7324 13.4642 18.5202 12.8164 20.0957 12.582C20.6686 12.4974 21.0723 12.4193 21.3066 12.3477V12.0449C21.3066 11.7715 21.209 11.5566 21.0137 11.4004C20.8184 11.2441 20.5579 11.166 20.2324 11.166C19.6139 11.166 19.0801 11.4199 18.6309 11.9277L17.8789 11.2832C18.1719 10.9382 18.5202 10.6712 18.9238 10.4824C19.334 10.2871 19.7637 10.1895 20.2129 10.1895C21.0527 10.1895 21.6517 10.3945 22.0098 10.8047C22.3678 11.2083 22.5469 11.7747 22.5469 12.5039V16H21.3457V15.2969C21.2285 15.5378 21.0234 15.7461 20.7305 15.9219C20.444 16.0911 20.1055 16.1758 19.7148 16.1758C19.0964 16.1758 18.6113 16.0228 18.2598 15.7168C17.9082 15.4108 17.7324 15.0137 17.7324 14.5254ZM23.2305 10.3652H24.5781L25.4277 13.2559C25.4798 13.4512 25.5547 13.7474 25.6523 14.1445C25.7565 14.5417 25.8281 14.8118 25.8672 14.9551H25.8867C25.9258 14.8053 26.0007 14.5319 26.1113 14.1348C26.222 13.7376 26.3034 13.4447 26.3555 13.2559L27.1953 10.3652H28.543L26.5898 16H25.1836L23.2305 10.3652ZM30.0469 14.418C30.0469 14.6263 30.1283 14.8021 30.291 14.9453C30.4603 15.082 30.6816 15.1504 30.9551 15.1504C31.3457 15.1504 31.6777 15.0202 31.9512 14.7598C32.2311 14.4993 32.3711 14.1576 32.3711 13.7344V13.2168C32.0716 13.2884 31.7103 13.3568 31.2871 13.4219C30.4603 13.5521 30.0469 13.8841 30.0469 14.418ZM28.7969 14.5254C28.7969 13.4642 29.5846 12.8164 31.1602 12.582C31.7331 12.4974 32.1367 12.4193 32.3711 12.3477V12.0449C32.3711 11.7715 32.2734 11.5566 32.0781 11.4004C31.8828 11.2441 31.6224 11.166 31.2969 11.166C30.6784 11.166 30.1445 11.4199 29.6953 11.9277L28.9434 11.2832C29.2363 10.9382 29.5846 10.6712 29.9883 10.4824C30.3984 10.2871 30.8281 10.1895 31.2773 10.1895C32.1172 10.1895 32.7161 10.3945 33.0742 10.8047C33.4323 11.2083 33.6113 11.7747 33.6113 12.5039V16H32.4102V15.2969C32.293 15.5378 32.0879 15.7461 31.7949 15.9219C31.5085 16.0911 31.1699 16.1758 30.7793 16.1758C30.1608 16.1758 29.6758 16.0228 29.3242 15.7168C28.9727 15.4108 28.7969 15.0137 28.7969 14.5254ZM34.4707 14.3496L35.6035 13.9688C35.7858 14.2943 36.0495 14.5612 36.3945 14.7695C36.7396 14.9714 37.1204 15.0723 37.5371 15.0723C37.9668 15.0723 38.3118 14.9681 38.5723 14.7598C38.8327 14.5514 38.9629 14.2812 38.9629 13.9492C38.9629 13.5977 38.8229 13.3242 38.543 13.1289C38.2695 12.9336 37.8659 12.7448 37.332 12.5625C36.5703 12.3086 36.056 12.1068 35.7891 11.957C35.0924 11.5599 34.7441 10.9837 34.7441 10.2285C34.7441 9.59049 34.9948 9.07617 35.4961 8.68555C35.9974 8.29492 36.6517 8.09961 37.459 8.09961C38.123 8.09961 38.6895 8.25586 39.1582 8.56836C39.6335 8.87435 39.9785 9.26823 40.1934 9.75L39.1094 10.1113C38.6927 9.50586 38.1393 9.20312 37.4492 9.20312C37.026 9.20312 36.6908 9.29753 36.4434 9.48633C36.196 9.67513 36.0723 9.92253 36.0723 10.2285C36.0723 10.3197 36.082 10.4076 36.1016 10.4922C36.1211 10.5703 36.1602 10.6452 36.2188 10.7168C36.2773 10.7884 36.3294 10.8503 36.375 10.9023C36.4206 10.9544 36.4954 11.0098 36.5996 11.0684C36.7038 11.127 36.7852 11.1725 36.8438 11.2051C36.9089 11.2376 37.013 11.2799 37.1562 11.332C37.2995 11.3841 37.4004 11.4199 37.459 11.4395C37.5241 11.459 37.6413 11.498 37.8105 11.5566C37.9798 11.6087 38.0938 11.6445 38.1523 11.6641C38.4518 11.7617 38.7155 11.8659 38.9434 11.9766C39.1712 12.0872 39.3926 12.2305 39.6074 12.4062C39.8288 12.5755 39.998 12.7871 40.1152 13.041C40.2324 13.2949 40.291 13.5814 40.291 13.9004C40.291 14.623 40.0306 15.1829 39.5098 15.5801C38.9954 15.9772 38.3281 16.1758 37.5078 16.1758C36.7982 16.1758 36.1764 16.013 35.6426 15.6875C35.1087 15.3555 34.7181 14.9095 34.4707 14.3496ZM40.9453 13.1875C40.9453 12.2826 41.1862 11.5566 41.668 11.0098C42.1562 10.4629 42.7845 10.1895 43.5527 10.1895C44.1126 10.1895 44.5846 10.3587 44.9688 10.6973C45.3529 11.0358 45.5938 11.4232 45.6914 11.8594L44.6367 12.1523C44.5586 11.9049 44.4251 11.6934 44.2363 11.5176C44.0475 11.3353 43.8229 11.2441 43.5625 11.2441C43.1393 11.2441 42.8073 11.4297 42.5664 11.8008C42.332 12.1719 42.2148 12.6341 42.2148 13.1875C42.2148 13.7995 42.3418 14.2747 42.5957 14.6133C42.8496 14.9518 43.1719 15.1211 43.5625 15.1211C43.849 15.1211 44.0996 15.0234 44.3145 14.8281C44.5358 14.6263 44.6888 14.3984 44.7734 14.1445L45.8281 14.4473C45.7044 14.903 45.4342 15.3066 45.0176 15.6582C44.6009 16.0033 44.1126 16.1758 43.5527 16.1758C42.7845 16.1758 42.1562 15.9056 41.668 15.3652C41.1862 14.8184 40.9453 14.0924 40.9453 13.1875ZM46.6875 16V10.3652H47.8789V10.9707C48.0026 10.7624 48.1784 10.5801 48.4062 10.4238C48.6406 10.2676 48.9173 10.1895 49.2363 10.1895C49.5358 10.1895 49.7799 10.2318 49.9688 10.3164V11.4395C49.7214 11.3613 49.4772 11.3223 49.2363 11.3223C48.8132 11.3223 48.4876 11.4883 48.2598 11.8203C48.0384 12.1458 47.9277 12.582 47.9277 13.1289V16H46.6875ZM50.6816 9.52539V8.16797H52.0098V9.52539H50.6816ZM50.7402 16V10.3652H51.9609V16H50.7402ZM54.7051 13.1777C54.7051 13.7702 54.8158 14.2422 55.0371 14.5938C55.265 14.9453 55.5807 15.1211 55.9844 15.1211C56.3685 15.1211 56.681 14.9518 56.9219 14.6133C57.1628 14.2682 57.2832 13.7897 57.2832 13.1777C57.2832 12.5853 57.166 12.1165 56.9316 11.7715C56.7038 11.4199 56.388 11.2441 55.9844 11.2441C55.5872 11.2441 55.2747 11.4232 55.0469 11.7812C54.819 12.1393 54.7051 12.6048 54.7051 13.1777ZM53.4844 18.3047V10.3652H54.6758V11.0977C55.0208 10.4922 55.5156 10.1895 56.1602 10.1895C56.8438 10.1895 57.4102 10.4596 57.8594 11C58.3151 11.5339 58.543 12.2598 58.543 13.1777C58.543 13.6921 58.4714 14.151 58.3281 14.5547C58.1849 14.9518 57.9928 15.2643 57.752 15.4922C57.5176 15.7201 57.2637 15.8893 56.9902 16C56.7233 16.1172 56.4466 16.1758 56.1602 16.1758C55.7956 16.1758 55.4896 16.0944 55.2422 15.9316C55.0013 15.7624 54.8255 15.5671 54.7148 15.3457V18.3047H53.4844ZM59.0703 11.4199V10.3652H59.9395V8.69531H61.1699V10.3652H62.459V11.4199H61.1699V14.1934C61.1699 14.4603 61.222 14.6523 61.3262 14.7695C61.4368 14.8867 61.6029 14.9453 61.8242 14.9453H62.4688V16H61.668C60.5156 16 59.9395 15.4271 59.9395 14.2812V11.4199H59.0703Z" fill="white"/>
</svg>
