<svg width="56" height="25" viewBox="0 0 56 25" fill="none" xmlns="http://www.w3.org/2000/svg">
<rect width="56" height="25" rx="2" fill="#CC6699"/>
<path d="M14.2637 14.3496L15.3965 13.9688C15.5788 14.2943 15.8424 14.5612 16.1875 14.7695C16.5326 14.9714 16.9134 15.0723 17.3301 15.0723C17.7598 15.0723 18.1048 14.9681 18.3652 14.7598C18.6257 14.5514 18.7559 14.2812 18.7559 13.9492C18.7559 13.5977 18.6159 13.3242 18.3359 13.1289C18.0625 12.9336 17.6589 12.7448 17.125 12.5625C16.3633 12.3086 15.849 12.1068 15.582 11.957C14.8854 11.5599 14.5371 10.9837 14.5371 10.2285C14.5371 9.59049 14.7878 9.07617 15.2891 8.68555C15.7904 8.29492 16.4447 8.09961 17.252 8.09961C17.916 8.09961 18.4824 8.25586 18.9512 8.56836C19.4264 8.87435 19.7715 9.26823 19.9863 9.75L18.9023 10.1113C18.4857 9.50586 17.9323 9.20312 17.2422 9.20312C16.819 9.20312 16.4837 9.29753 16.2363 9.48633C15.9889 9.67513 15.8652 9.92253 15.8652 10.2285C15.8652 10.3197 15.875 10.4076 15.8945 10.4922C15.9141 10.5703 15.9531 10.6452 16.0117 10.7168C16.0703 10.7884 16.1224 10.8503 16.168 10.9023C16.2135 10.9544 16.2884 11.0098 16.3926 11.0684C16.4967 11.127 16.5781 11.1725 16.6367 11.2051C16.7018 11.2376 16.806 11.2799 16.9492 11.332C17.0924 11.3841 17.1934 11.4199 17.252 11.4395C17.3171 11.459 17.4342 11.498 17.6035 11.5566C17.7728 11.6087 17.8867 11.6445 17.9453 11.6641C18.2448 11.7617 18.5085 11.8659 18.7363 11.9766C18.9642 12.0872 19.1855 12.2305 19.4004 12.4062C19.6217 12.5755 19.791 12.7871 19.9082 13.041C20.0254 13.2949 20.084 13.5814 20.084 13.9004C20.084 14.623 19.8236 15.1829 19.3027 15.5801C18.7884 15.9772 18.1211 16.1758 17.3008 16.1758C16.5911 16.1758 15.9694 16.013 15.4355 15.6875C14.9017 15.3555 14.5111 14.9095 14.2637 14.3496ZM20.7969 12.1328C20.7969 10.8958 21.1159 9.91602 21.7539 9.19336C22.3919 8.46419 23.2155 8.09961 24.2246 8.09961C24.8757 8.09961 25.4323 8.27865 25.8945 8.63672C26.3633 8.99479 26.7116 9.4375 26.9395 9.96484L25.8359 10.3262C25.4193 9.57747 24.8757 9.20312 24.2051 9.20312C23.5671 9.20312 23.0592 9.47005 22.6816 10.0039C22.3105 10.5312 22.125 11.2409 22.125 12.1328C22.125 13.0378 22.3138 13.7539 22.6914 14.2812C23.069 14.8086 23.5736 15.0723 24.2051 15.0723C24.6152 15.0723 24.9766 14.9486 25.2891 14.7012C25.6081 14.4538 25.8392 14.151 25.9824 13.793L27.1348 14.1543C27.0371 14.3887 26.9102 14.6165 26.7539 14.8379C26.6042 15.0527 26.4121 15.2676 26.1777 15.4824C25.9499 15.6908 25.6667 15.86 25.3281 15.9902C24.9896 16.1139 24.6217 16.1758 24.2246 16.1758C23.235 16.1758 22.4147 15.8177 21.7637 15.1016C21.1191 14.3789 20.7969 13.3893 20.7969 12.1328ZM27.6133 14.3496L28.7461 13.9688C28.9284 14.2943 29.1921 14.5612 29.5371 14.7695C29.8822 14.9714 30.263 15.0723 30.6797 15.0723C31.1094 15.0723 31.4544 14.9681 31.7148 14.7598C31.9753 14.5514 32.1055 14.2812 32.1055 13.9492C32.1055 13.5977 31.9655 13.3242 31.6855 13.1289C31.4121 12.9336 31.0085 12.7448 30.4746 12.5625C29.7129 12.3086 29.1986 12.1068 28.9316 11.957C28.235 11.5599 27.8867 10.9837 27.8867 10.2285C27.8867 9.59049 28.1374 9.07617 28.6387 8.68555C29.14 8.29492 29.7943 8.09961 30.6016 8.09961C31.2656 8.09961 31.832 8.25586 32.3008 8.56836C32.776 8.87435 33.1211 9.26823 33.3359 9.75L32.252 10.1113C31.8353 9.50586 31.2819 9.20312 30.5918 9.20312C30.1686 9.20312 29.8333 9.29753 29.5859 9.48633C29.3385 9.67513 29.2148 9.92253 29.2148 10.2285C29.2148 10.3197 29.2246 10.4076 29.2441 10.4922C29.2637 10.5703 29.3027 10.6452 29.3613 10.7168C29.4199 10.7884 29.472 10.8503 29.5176 10.9023C29.5632 10.9544 29.638 11.0098 29.7422 11.0684C29.8464 11.127 29.9277 11.1725 29.9863 11.2051C30.0514 11.2376 30.1556 11.2799 30.2988 11.332C30.4421 11.3841 30.543 11.4199 30.6016 11.4395C30.6667 11.459 30.7839 11.498 30.9531 11.5566C31.1224 11.6087 31.2363 11.6445 31.2949 11.6641C31.5944 11.7617 31.8581 11.8659 32.0859 11.9766C32.3138 12.0872 32.5352 12.2305 32.75 12.4062C32.9714 12.5755 33.1406 12.7871 33.2578 13.041C33.375 13.2949 33.4336 13.5814 33.4336 13.9004C33.4336 14.623 33.1732 15.1829 32.6523 15.5801C32.138 15.9772 31.4707 16.1758 30.6504 16.1758C29.9408 16.1758 29.319 16.013 28.7852 15.6875C28.2513 15.3555 27.8607 14.9095 27.6133 14.3496ZM34 14.3496L35.1328 13.9688C35.3151 14.2943 35.5788 14.5612 35.9238 14.7695C36.2689 14.9714 36.6497 15.0723 37.0664 15.0723C37.4961 15.0723 37.8411 14.9681 38.1016 14.7598C38.362 14.5514 38.4922 14.2812 38.4922 13.9492C38.4922 13.5977 38.3522 13.3242 38.0723 13.1289C37.7988 12.9336 37.3952 12.7448 36.8613 12.5625C36.0996 12.3086 35.5853 12.1068 35.3184 11.957C34.6217 11.5599 34.2734 10.9837 34.2734 10.2285C34.2734 9.59049 34.5241 9.07617 35.0254 8.68555C35.5267 8.29492 36.181 8.09961 36.9883 8.09961C37.6523 8.09961 38.2188 8.25586 38.6875 8.56836C39.1628 8.87435 39.5078 9.26823 39.7227 9.75L38.6387 10.1113C38.222 9.50586 37.6686 9.20312 36.9785 9.20312C36.5553 9.20312 36.2201 9.29753 35.9727 9.48633C35.7253 9.67513 35.6016 9.92253 35.6016 10.2285C35.6016 10.3197 35.6113 10.4076 35.6309 10.4922C35.6504 10.5703 35.6895 10.6452 35.748 10.7168C35.8066 10.7884 35.8587 10.8503 35.9043 10.9023C35.9499 10.9544 36.0247 11.0098 36.1289 11.0684C36.2331 11.127 36.3145 11.1725 36.373 11.2051C36.4382 11.2376 36.5423 11.2799 36.6855 11.332C36.8288 11.3841 36.9297 11.4199 36.9883 11.4395C37.0534 11.459 37.1706 11.498 37.3398 11.5566C37.5091 11.6087 37.623 11.6445 37.6816 11.6641C37.9811 11.7617 38.2448 11.8659 38.4727 11.9766C38.7005 12.0872 38.9219 12.2305 39.1367 12.4062C39.3581 12.5755 39.5273 12.7871 39.6445 13.041C39.7617 13.2949 39.8203 13.5814 39.8203 13.9004C39.8203 14.623 39.5599 15.1829 39.0391 15.5801C38.5247 15.9772 37.8574 16.1758 37.0371 16.1758C36.3275 16.1758 35.7057 16.013 35.1719 15.6875C34.638 15.3555 34.2474 14.9095 34 14.3496Z" fill="white"/>
</svg>
