<svg width="59" height="25" viewBox="0 0 59 25" fill="none" xmlns="http://www.w3.org/2000/svg">
<rect width="59" height="25" rx="2" fill="#E44D26"/>
<path d="M13.8691 16V8.27539H15.1484V11.4883H18.2734V8.27539H19.5527V16H18.2734V12.5723H15.1484V16H13.8691ZM20.5195 9.37891V8.27539H26.2617V9.37891H24.0352V16H22.7461V9.37891H20.5195ZM27.2188 16V8.27539H28.791L30.1484 11.8691C30.2461 12.1361 30.3698 12.5007 30.5195 12.9629C30.6693 13.4186 30.7669 13.7148 30.8125 13.8516H30.8516C31.1771 12.9076 31.4082 12.2467 31.5449 11.8691L32.873 8.27539H34.4648V16H33.1953V12.4941C33.1953 11.9082 33.2409 11.1139 33.332 10.1113H33.293L32.7363 11.752L31.3203 15.5605H30.3633L28.9668 11.752L28.3906 10.1016H28.3418C28.446 11.0391 28.498 11.8366 28.498 12.4941V16H27.2188ZM36.1934 16V8.27539H37.4824V14.9062H40.9785V16H36.1934ZM41.4668 14.5645L42.5312 14.1836C42.6484 14.457 42.821 14.6816 43.0488 14.8574C43.2767 15.0332 43.5273 15.1211 43.8008 15.1211C44.2109 15.1211 44.5332 14.9844 44.7676 14.7109C45.0085 14.431 45.1289 14.0599 45.1289 13.5977C45.1289 13.1484 45.002 12.7806 44.748 12.4941C44.4941 12.2077 44.1719 12.0645 43.7812 12.0645C43.2995 12.0645 42.8796 12.2988 42.5215 12.7676L41.7109 12.4551L42.1211 8.27539H46.0273V9.33984H43.3027L43.0684 11.3613C43.3874 11.1335 43.7747 11.0195 44.2305 11.0195C44.888 11.0195 45.4219 11.2507 45.832 11.7129C46.2422 12.1686 46.4473 12.7871 46.4473 13.5684C46.4473 13.9004 46.3952 14.2161 46.291 14.5156C46.1934 14.8151 46.0436 15.0918 45.8418 15.3457C45.6465 15.5996 45.3763 15.8014 45.0312 15.9512C44.6862 16.1009 44.2923 16.1758 43.8496 16.1758C43.2572 16.1758 42.7624 16.0293 42.3652 15.7363C41.9681 15.4368 41.6686 15.0462 41.4668 14.5645Z" fill="white"/>
</svg>
