<svg width="56" height="25" viewBox="0 0 56 25" fill="none" xmlns="http://www.w3.org/2000/svg">
<rect width="56" height="25" rx="2" fill="#3168F0"/>
<path d="M14.4102 13.1328C14.4102 11.8958 14.7292 10.916 15.3672 10.1934C16.0052 9.46419 16.8288 9.09961 17.8379 9.09961C18.4889 9.09961 19.0456 9.27865 19.5078 9.63672C19.9766 9.99479 20.3249 10.4375 20.5527 10.9648L19.4492 11.3262C19.0326 10.5775 18.4889 10.2031 17.8184 10.2031C17.1803 10.2031 16.6725 10.4701 16.2949 11.0039C15.9238 11.5312 15.7383 12.2409 15.7383 13.1328C15.7383 14.0378 15.9271 14.7539 16.3047 15.2812C16.6823 15.8086 17.1868 16.0723 17.8184 16.0723C18.2285 16.0723 18.5898 15.9486 18.9023 15.7012C19.2214 15.4538 19.4525 15.151 19.5957 14.793L20.748 15.1543C20.6504 15.3887 20.5234 15.6165 20.3672 15.8379C20.2174 16.0527 20.0254 16.2676 19.791 16.4824C19.5632 16.6908 19.2799 16.86 18.9414 16.9902C18.6029 17.1139 18.235 17.1758 17.8379 17.1758C16.8483 17.1758 16.028 16.8177 15.377 16.1016C14.7324 15.3789 14.4102 14.3893 14.4102 13.1328ZM21.2266 15.3496L22.3594 14.9688C22.5417 15.2943 22.8053 15.5612 23.1504 15.7695C23.4954 15.9714 23.8763 16.0723 24.293 16.0723C24.7227 16.0723 25.0677 15.9681 25.3281 15.7598C25.5885 15.5514 25.7188 15.2812 25.7188 14.9492C25.7188 14.5977 25.5788 14.3242 25.2988 14.1289C25.0254 13.9336 24.6217 13.7448 24.0879 13.5625C23.3262 13.3086 22.8118 13.1068 22.5449 12.957C21.8483 12.5599 21.5 11.9837 21.5 11.2285C21.5 10.5905 21.7507 10.0762 22.252 9.68555C22.7533 9.29492 23.4076 9.09961 24.2148 9.09961C24.8789 9.09961 25.4453 9.25586 25.9141 9.56836C26.3893 9.87435 26.7344 10.2682 26.9492 10.75L25.8652 11.1113C25.4486 10.5059 24.8952 10.2031 24.2051 10.2031C23.7819 10.2031 23.4466 10.2975 23.1992 10.4863C22.9518 10.6751 22.8281 10.9225 22.8281 11.2285C22.8281 11.3197 22.8379 11.4076 22.8574 11.4922C22.877 11.5703 22.916 11.6452 22.9746 11.7168C23.0332 11.7884 23.0853 11.8503 23.1309 11.9023C23.1764 11.9544 23.2513 12.0098 23.3555 12.0684C23.4596 12.127 23.541 12.1725 23.5996 12.2051C23.6647 12.2376 23.7689 12.2799 23.9121 12.332C24.0553 12.3841 24.1562 12.4199 24.2148 12.4395C24.2799 12.459 24.3971 12.498 24.5664 12.5566C24.7357 12.6087 24.8496 12.6445 24.9082 12.6641C25.2077 12.7617 25.4714 12.8659 25.6992 12.9766C25.9271 13.0872 26.1484 13.2305 26.3633 13.4062C26.5846 13.5755 26.7539 13.7871 26.8711 14.041C26.9883 14.2949 27.0469 14.5814 27.0469 14.9004C27.0469 15.623 26.7865 16.1829 26.2656 16.5801C25.7513 16.9772 25.084 17.1758 24.2637 17.1758C23.554 17.1758 22.9323 17.013 22.3984 16.6875C21.8646 16.3555 21.474 15.9095 21.2266 15.3496ZM27.6133 15.3496L28.7461 14.9688C28.9284 15.2943 29.1921 15.5612 29.5371 15.7695C29.8822 15.9714 30.263 16.0723 30.6797 16.0723C31.1094 16.0723 31.4544 15.9681 31.7148 15.7598C31.9753 15.5514 32.1055 15.2812 32.1055 14.9492C32.1055 14.5977 31.9655 14.3242 31.6855 14.1289C31.4121 13.9336 31.0085 13.7448 30.4746 13.5625C29.7129 13.3086 29.1986 13.1068 28.9316 12.957C28.235 12.5599 27.8867 11.9837 27.8867 11.2285C27.8867 10.5905 28.1374 10.0762 28.6387 9.68555C29.14 9.29492 29.7943 9.09961 30.6016 9.09961C31.2656 9.09961 31.832 9.25586 32.3008 9.56836C32.776 9.87435 33.1211 10.2682 33.3359 10.75L32.252 11.1113C31.8353 10.5059 31.2819 10.2031 30.5918 10.2031C30.1686 10.2031 29.8333 10.2975 29.5859 10.4863C29.3385 10.6751 29.2148 10.9225 29.2148 11.2285C29.2148 11.3197 29.2246 11.4076 29.2441 11.4922C29.2637 11.5703 29.3027 11.6452 29.3613 11.7168C29.4199 11.7884 29.472 11.8503 29.5176 11.9023C29.5632 11.9544 29.638 12.0098 29.7422 12.0684C29.8464 12.127 29.9277 12.1725 29.9863 12.2051C30.0514 12.2376 30.1556 12.2799 30.2988 12.332C30.4421 12.3841 30.543 12.4199 30.6016 12.4395C30.6667 12.459 30.7839 12.498 30.9531 12.5566C31.1224 12.6087 31.2363 12.6445 31.2949 12.6641C31.5944 12.7617 31.8581 12.8659 32.0859 12.9766C32.3138 13.0872 32.5352 13.2305 32.75 13.4062C32.9714 13.5755 33.1406 13.7871 33.2578 14.041C33.375 14.2949 33.4336 14.5814 33.4336 14.9004C33.4336 15.623 33.1732 16.1829 32.6523 16.5801C32.138 16.9772 31.4707 17.1758 30.6504 17.1758C29.9408 17.1758 29.319 17.013 28.7852 16.6875C28.2513 16.3555 27.8607 15.9095 27.6133 15.3496ZM34.0293 15.4375L35.0645 15.0566C35.3704 15.7663 35.8652 16.1211 36.5488 16.1211C36.9199 16.1211 37.2324 16.0072 37.4863 15.7793C37.7402 15.5449 37.8672 15.2161 37.8672 14.793C37.8672 14.4089 37.7272 14.0964 37.4473 13.8555C37.1673 13.6146 36.8125 13.4941 36.3828 13.4941C36.1484 13.4941 35.9141 13.5072 35.6797 13.5332V12.4785C35.849 12.4915 36.0703 12.498 36.3438 12.498C36.6888 12.498 36.9818 12.3906 37.2227 12.1758C37.4701 11.9609 37.5938 11.6647 37.5938 11.2871C37.5938 10.9551 37.4896 10.6849 37.2812 10.4766C37.0729 10.2617 36.8092 10.1543 36.4902 10.1543C35.9303 10.1543 35.5202 10.5254 35.2598 11.2676L34.2051 10.9355C34.3418 10.3952 34.6152 9.95573 35.0254 9.61719C35.4421 9.27214 35.9564 9.09961 36.5684 9.09961C37.2845 9.09961 37.8542 9.29492 38.2773 9.68555C38.7005 10.0697 38.9121 10.5612 38.9121 11.1602C38.9121 11.5573 38.8079 11.9121 38.5996 12.2246C38.3978 12.5371 38.1471 12.7715 37.8477 12.9277C38.2057 13.0514 38.5182 13.2728 38.7852 13.5918C39.0586 13.9043 39.1953 14.3047 39.1953 14.793C39.1953 15.5417 38.9544 16.1276 38.4727 16.5508C37.9974 16.9674 37.3594 17.1758 36.5586 17.1758C35.9141 17.1758 35.3672 17.0065 34.918 16.668C34.4753 16.3294 34.179 15.9193 34.0293 15.4375Z" fill="white"/>
</svg>
