<svg width="52" height="69" viewBox="0 0 52 69" fill="none" xmlns="http://www.w3.org/2000/svg">
<path d="M32.8174 57.5177C32.7502 57.6696 32.5118 57.7152 32.2946 57.6114C32.0724 57.5121 31.9487 57.305 32.0204 57.1526C32.086 56.9956 32.325 56.9525 32.5457 57.0574C32.7679 57.1571 32.8942 57.3663 32.8169 57.5182L32.8174 57.5177ZM34.0529 58.8998C33.9079 59.035 33.6235 58.9722 33.4306 58.758C33.2306 58.5453 33.1932 58.2602 33.3412 58.1229C33.4917 57.9882 33.7675 58.052 33.9675 58.2647C34.1665 58.4805 34.2059 58.7631 34.0534 58.9003L34.0529 58.8998ZM35.256 60.6607C35.0691 60.7914 34.763 60.6693 34.5741 60.3974C34.3872 60.1249 34.3872 59.7982 34.5792 59.6681C34.7676 59.5374 35.0691 59.6554 35.2611 59.9249C35.4469 60.2009 35.4469 60.528 35.256 60.6607ZM36.9031 62.3629C36.7364 62.5478 36.3798 62.4981 36.1192 62.2464C35.853 61.9998 35.7788 61.6488 35.946 61.4645C36.1157 61.2791 36.4738 61.3308 36.7359 61.5809C37.0021 61.8271 37.0824 62.1786 36.9041 62.3624L36.9031 62.3629ZM39.176 63.351C39.1018 63.5905 38.7593 63.6994 38.4133 63.5971C38.0684 63.4923 37.8426 63.2122 37.9133 62.9701C37.984 62.7286 38.329 62.6156 38.677 62.7245C39.022 62.8288 39.2478 63.1074 39.176 63.351ZM41.6727 63.5338C41.6813 63.786 41.3883 63.9947 41.0262 63.9997C40.661 64.0083 40.3655 63.8037 40.362 63.5556C40.362 63.3008 40.6489 63.0947 41.0136 63.0876C41.3757 63.081 41.6732 63.2836 41.6732 63.5333L41.6727 63.5338ZM43.9951 63.1378C44.0386 63.3834 43.7865 63.6361 43.4264 63.7035C43.0728 63.7693 42.7445 63.6164 42.6991 63.3728C42.6556 63.1205 42.9122 62.8678 43.2658 62.8025C43.6264 62.7402 43.9497 62.8881 43.9951 63.1378Z" fill="#181616"/>
<path d="M25.9682 69L4.73241 63.5019L0 14H52L47.2627 63.4943L25.9682 69Z" fill="#264DE4" fill-opacity="0.8"/>
<path d="M43.0005 60.5267L47 18H26V65L43.0005 60.5267Z" fill="#2965F1" fill-opacity="0.8"/>
<path d="M11.1492 36.1524L11.721 42.1565H26V36.1524H11.1492ZM10 24L10.58 30.0041H26V24H10ZM26 51.7457L25.972 51.7526L18.8658 49.9471L18.4115 45.1586H12.0061L12.9 54.586L25.9706 58L26 57.9925V51.7457Z" fill="#EBEBEB"/>
<path d="M12 0H19.9409V3.28573H15.3209V6.57147H19.9413V9.857H12V0ZM21.5293 0H29.4705V2.85714H24.8502V3.42853H29.4705V10H21.5295V6.99965H26.1498V6.42827H21.5291L21.5293 0ZM31.0589 0H39V2.85714H34.3798V3.42853H39V10H31.0589V6.99965H35.6791V6.42827H31.0591V0H31.0589Z" fill="black"/>
<path d="M40.847 36.1534L42 24H26.0002V30.0046H35.0003L34.4191 36.1534H26.0002V42.158H33.8653L33.1237 49.9455L26 51.7531V58L39.0941 54.5885L39.1901 53.574L40.6913 37.7658L40.847 36.1534Z" fill="white"/>
</svg>
