<svg width="45" height="67" viewBox="0 0 45 67" fill="none" xmlns="http://www.w3.org/2000/svg">
<path d="M33.0179 44.0241C39.0965 44.0241 44.0241 39.0965 44.0241 33.0179C44.0241 26.9394 39.0965 22.0117 33.0179 22.0117C26.9394 22.0117 22.0117 26.9394 22.0117 33.0179C22.0117 39.0965 26.9394 44.0241 33.0179 44.0241Z" fill="#19BCFE"/>
<path fill-rule="evenodd" clip-rule="evenodd" d="M11.0062 66.0378C17.0848 66.0378 22.0124 61.1102 22.0124 55.0316C22.0124 53.3723 22.0124 49.7035 22.0124 44.0254C17.068 44.0254 13.3993 44.0254 11.0062 44.0254C4.92765 44.0254 0 48.953 0 55.0316C0 61.1102 4.92765 66.0378 11.0062 66.0378Z" fill="#09CF83"/>
<path fill-rule="evenodd" clip-rule="evenodd" d="M11.0062 44.0241C13.0324 44.0241 16.7011 44.0241 22.0124 44.0241V22.0117C16.7011 22.0117 13.0324 22.0117 11.0062 22.0117C4.92765 22.0117 0 26.9394 0 33.0179C0 39.0965 4.92765 44.0241 11.0062 44.0241Z" fill="#A259FF"/>
<path fill-rule="evenodd" clip-rule="evenodd" d="M11.0062 22.0124C13.0324 22.0124 16.7011 22.0124 22.0124 22.0124V0C16.7011 0 13.0324 0 11.0062 0C4.92765 0 0 4.92765 0 11.0062C0 17.0848 4.92765 22.0124 11.0062 22.0124Z" fill="#F24E1E"/>
<path fill-rule="evenodd" clip-rule="evenodd" d="M33.0179 22.0124H22.0117V0H33.0179C39.0965 0 44.0241 4.92765 44.0241 11.0062C44.0241 17.0848 39.0965 22.0124 33.0179 22.0124Z" fill="#FF7262"/>
</svg>
