<svg width="57" height="55" viewBox="0 0 57 55" fill="none" xmlns="http://www.w3.org/2000/svg">
<path fill-rule="evenodd" clip-rule="evenodd" d="M28.0641 0C12.5667 0 0 12.4176 0 27.7371C0 39.9925 8.04121 50.3891 19.1919 54.0572C20.594 54.3144 21.1089 53.4555 21.1089 52.7229C21.1089 52.0614 21.0829 49.8765 21.0708 47.5588C13.2634 49.2367 11.6159 44.2862 11.6159 44.2862C10.3393 41.0802 8.4999 40.2277 8.4999 40.2277C5.95318 38.5062 8.69184 38.542 8.69184 38.542C11.5095 38.7372 12.9938 41.4003 12.9938 41.4003C15.4969 45.6398 19.5591 44.4143 21.1605 43.7061C21.4124 41.9134 22.1397 40.6893 22.9423 39.9966C16.7089 39.2962 10.1557 36.9174 10.1557 26.2893C10.1557 23.2611 11.2525 20.7867 13.0477 18.8438C12.7559 18.1457 11.7953 15.3246 13.3191 11.504C13.3191 11.504 15.6753 10.7585 21.0383 14.3471C23.2774 13.7321 25.6786 13.423 28.0641 13.4124C30.4481 13.423 32.8508 13.7312 35.094 14.3462C40.4505 10.7576 42.8039 11.5031 42.8039 11.5031C44.3315 15.3232 43.3709 18.1448 43.0795 18.8429C44.8789 20.7858 45.9678 23.2601 45.9678 26.2884C45.9678 36.9417 39.4026 39.287 33.1533 39.9741C34.1604 40.8349 35.0573 42.5233 35.0573 45.1106C35.0573 48.8219 35.0248 51.8088 35.0248 52.7224C35.0248 53.4605 35.5304 54.3254 36.9525 54.053C48.0967 50.3813 56.1286 39.9879 56.1286 27.7371C56.1282 12.4185 43.5628 0 28.0641 0Z" fill="#181616"/>
<path d="M9.8146 40.1922C9.75279 40.33 9.53343 40.3713 9.3336 40.2772C9.12912 40.1871 9.01526 39.9993 9.08125 39.861C9.14167 39.7186 9.36148 39.6796 9.56457 39.7747C9.76905 39.8652 9.88523 40.0548 9.81413 40.1926L9.8146 40.1922ZM10.9513 41.4457C10.8179 41.5683 10.5563 41.5113 10.3788 41.317C10.1947 41.1241 10.1604 40.8655 10.2965 40.7411C10.435 40.6189 10.6888 40.6768 10.8728 40.8697C11.0559 41.0653 11.0921 41.3216 10.9518 41.4461L10.9513 41.4457ZM12.0583 43.0427C11.8864 43.1612 11.6047 43.0505 11.4309 42.8038C11.259 42.5567 11.259 42.2605 11.4356 42.1424C11.6089 42.0239 11.8864 42.1309 12.063 42.3753C12.234 42.6256 12.234 42.9223 12.0583 43.0427ZM13.5738 44.5864C13.4204 44.7541 13.0923 44.7091 12.8525 44.4808C12.6076 44.2571 12.5393 43.9388 12.6931 43.7716C12.8493 43.6035 13.1788 43.6504 13.42 43.8773C13.6649 44.1005 13.7388 44.4193 13.5747 44.586L13.5738 44.5864ZM15.6651 45.4826C15.5968 45.6998 15.2817 45.7986 14.9633 45.7058C14.6459 45.6107 14.4382 45.3567 14.5033 45.1372C14.5683 44.9181 14.8857 44.8156 15.2059 44.9144C15.5233 45.009 15.7311 45.2616 15.6651 45.4826ZM17.9622 45.6484C17.9701 45.8771 17.7006 46.0664 17.3674 46.0709C17.0314 46.0788 16.7595 45.8932 16.7563 45.6681C16.7563 45.4371 17.0202 45.2502 17.3558 45.2437C17.689 45.2378 17.9627 45.4215 17.9627 45.6479L17.9622 45.6484ZM20.0991 45.2892C20.139 45.512 19.9071 45.7412 19.5758 45.8022C19.2505 45.862 18.9484 45.7232 18.9066 45.5023C18.8666 45.2736 19.1027 45.0444 19.428 44.9851C19.7598 44.9286 20.0572 45.0628 20.0991 45.2892Z" fill="#181616"/>
</svg>
