<svg width="52" height="71" viewBox="0 0 52 71" fill="none" xmlns="http://www.w3.org/2000/svg">
<path d="M52 14L47.2627 65.294L25.9682 71L4.73232 65.3021L0 14H52Z" fill="#E44D26"/>
<path d="M26 67L43.0003 62.3363L47 18H26V67Z" fill="#F16529"/>
<path d="M16.4092 30.6138H26V24H9L9.16228 25.7744L10.8286 44H26V37.3863H17.0288L16.4092 30.6138Z" fill="#EBEBEB"/>
<path d="M18.4081 47H12L12.8943 56.5436L25.9706 60L26 59.9922V53.6684L25.972 53.6755L18.8626 51.8476L18.4081 47Z" fill="#EBEBEB"/>
<path d="M5 0H8.08768V3.30224H10.9122V0H14V10H10.9123V6.65141H8.08782V10H5.00013L5 0Z" fill="black"/>
<path d="M18.8695 3.31615H16V0H25V3.31615H22.1292V10H18.8696L18.8695 3.31615Z" fill="black"/>
<path d="M26 0H29.7151L32.0005 3.5137L34.2835 0H38V10H34.4518V5.04345L32.0005 8.59901H31.9392L29.4862 5.04345V10H26V0Z" fill="black"/>
<path d="M39 0H42.3252V6.69457H47V10H39V0Z" fill="black"/>
<path d="M26 43.3215H33.9462L33.1972 51.5202L26 53.4232V60L39.2291 56.4082L39.3261 55.3402L40.8425 38.6975L41 37H26V43.3215Z" fill="white"/>
<path d="M26 30.9829V31H41.4281L41.5562 29.4266L41.8472 25.878L42 24H26V30.9829Z" fill="white"/>
<path d="M52 14L47.2627 65.294L25.9682 71L4.73232 65.3021L0 14H52Z" fill="#E44D26"/>
<path d="M26 67L43.0003 62.3363L47 18H26V67Z" fill="#F16529"/>
<path d="M16.4092 30.6138H26V24H9L9.16228 25.7744L10.8286 44H26V37.3863H17.0288L16.4092 30.6138Z" fill="#EBEBEB"/>
<path d="M18.4081 47H12L12.8943 56.5436L25.9706 60L26 59.9922V53.6684L25.972 53.6755L18.8626 51.8476L18.4081 47Z" fill="#EBEBEB"/>
<path d="M5 0H8.08768V3.30224H10.9122V0H14V10H10.9123V6.65141H8.08782V10H5.00013L5 0Z" fill="black"/>
<path d="M18.8695 3.31615H16V0H25V3.31615H22.1292V10H18.8696L18.8695 3.31615Z" fill="black"/>
<path d="M26 0H29.7151L32.0005 3.5137L34.2835 0H38V10H34.4518V5.04345L32.0005 8.59901H31.9392L29.4862 5.04345V10H26V0Z" fill="black"/>
<path d="M39 0H42.3252V6.69457H47V10H39V0Z" fill="black"/>
<path d="M26 43.3215H33.9462L33.1972 51.5202L26 53.4232V60L39.2291 56.4082L39.3261 55.3402L40.8425 38.6975L41 37H26V43.3215Z" fill="white"/>
<path d="M26 30.9829V31H41.4281L41.5562 29.4266L41.8472 25.878L42 24H26V30.9829Z" fill="white"/>
</svg>
