<svg width="59" height="60" viewBox="0 0 59 60" fill="none" xmlns="http://www.w3.org/2000/svg">
<path fill-rule="evenodd" clip-rule="evenodd" d="M45.2176 55.296C40.0699 55.296 36.7423 52.8 35.1198 49.536L39.6333 46.878C40.8221 48.852 42.365 50.301 45.0996 50.301C47.3947 50.301 48.8609 49.134 48.8609 47.523C48.8609 45.099 45.6807 44.151 43.4358 43.173C39.4356 41.442 36.7806 39.267 36.7806 34.674C36.7806 30.447 39.9489 27.225 44.902 27.225C48.4243 27.225 50.9613 28.473 52.7814 31.734L48.4656 34.554C47.5157 32.823 46.4861 32.139 44.902 32.139C43.2765 32.139 42.247 33.186 42.247 34.554C42.247 36.246 43.2765 36.93 45.6542 37.977C50.6367 40.149 54.4069 41.856 54.4069 47.442C54.4069 52.518 50.4863 55.296 45.2176 55.296ZM32.45 46.797C32.45 52.638 28.9129 55.725 24.0012 55.725C19.5644 55.725 16.9065 54 15.5996 51H15.5229L20.0335 47.793C20.9037 49.362 21.6884 50.475 23.5882 50.475C25.4113 50.475 26.55 49.536 26.55 46.719V27H32.45V46.797ZM0 60H59V0H0V60Z" fill="#F3DB15"/>
</svg>
