<svg width="62" height="58" viewBox="0 0 62 58" fill="none" xmlns="http://www.w3.org/2000/svg">
<path d="M35.3762 28.556C35.3762 31.506 33.1159 33.8512 30.3834 33.8512C27.6509 33.8512 25.3906 31.506 25.3906 28.556C25.3906 25.6059 27.6509 23.2607 30.3834 23.2607C33.1159 23.2607 35.3762 25.6059 35.3762 28.556Z" fill="#70D9F3" stroke="#E8E5E5"/>
<mask id="path-2-inside-1_279_1020" fill="white">
<path d="M50.5137 18.7439L48.5223 18.0785C48.6385 17.6058 48.738 17.1331 48.8376 16.6604C50.3311 8.99176 49.3521 2.81135 46.0166 0.780396C42.6811 -1.25056 37.57 0.780396 32.2763 5.73523C31.7619 6.19044 31.2474 6.69818 30.7496 7.20592L29.7208 6.22546C24.1782 0.972987 18.619 -1.16302 15.2835 0.867937C11.948 2.89889 11.1349 8.62409 12.4625 15.89C12.5952 16.5903 12.7446 17.3082 12.9105 18.0435C12.1306 18.2711 11.3672 18.5338 10.6371 18.7964C4.16522 21.195 0 24.9418 0 28.8811C0 32.8205 4.46392 36.9174 11.2345 39.3861C11.7655 39.5787 12.3297 39.7537 12.8939 39.9288C12.7114 40.7167 12.5454 41.4871 12.4127 42.2399C11.1349 49.3833 12.1306 55.056 15.3333 56.9994C18.5361 58.9428 24.1616 56.9994 29.5548 51.9745L30.8326 50.7139C31.3802 51.2917 31.9444 51.8169 32.492 52.3247C37.7027 57.0519 42.8636 58.9778 46.0497 57.0169C49.2359 55.0559 50.4141 48.9281 49.0368 41.5221C48.9206 40.9443 48.8044 40.3665 48.6551 39.7713L49.8001 39.3861C56.8528 36.9349 61.4163 32.943 61.4163 28.8811C61.4163 24.8192 57.1349 21.1425 50.5137 18.7439ZM48.9704 36.7073L47.9249 37.0575C47.0779 34.2595 46.0465 31.5274 44.8383 28.8811C46.0083 26.2601 47.0063 23.5575 47.8254 20.7923C48.4559 20.9849 49.0699 21.1775 49.6507 21.3876C55.3427 23.4536 58.8109 26.5175 58.8109 28.8636C58.8109 31.2097 55.0606 34.5888 48.9704 36.7073ZM46.448 41.9598C47.0431 44.7707 47.1387 47.6736 46.7301 50.5213C46.6741 51.3017 46.467 52.0616 46.1216 52.7543C45.7762 53.4469 45.3 54.0574 44.7222 54.5482C42.7806 55.7213 38.6486 54.1805 34.1847 50.1361C33.6702 49.6634 33.1558 49.1732 32.6414 48.6479C34.4978 46.4701 36.2163 44.1657 37.7857 41.7497C40.5769 41.4969 43.3489 41.0465 46.0829 40.4015C46.2489 40.9443 46.365 41.4696 46.4646 41.9773L46.448 41.9598ZM20.9423 54.3556C20.2744 54.6903 19.5491 54.8784 18.8103 54.9085C18.0715 54.9386 17.3346 54.8101 16.6443 54.5307C14.7027 53.3401 13.8896 48.788 14.9848 42.6951C15.1065 41.9948 15.2559 41.277 15.4329 40.5416C18.1682 41.1608 20.9404 41.5819 23.7301 41.8022C25.3646 44.2135 27.1439 46.5118 29.057 48.683L27.8954 49.821C25.8595 51.7677 23.5029 53.3046 20.9423 54.3556ZM12.0808 36.6898C9.48331 35.8288 7.05867 34.4696 4.92857 32.6804C4.32154 32.2435 3.80436 31.6818 3.408 31.029C3.01165 30.3761 2.74429 29.6456 2.62193 28.8811C2.62193 26.5175 5.94083 23.5061 11.5166 21.4576C12.197 21.2125 12.9105 20.9849 13.6407 20.7573C14.4677 23.5309 15.4655 26.2446 16.6277 28.8811C15.442 31.5712 14.4329 34.344 13.6075 37.18C13.0765 37.04 12.5786 36.8649 12.0808 36.6898ZM15.0512 15.3648C13.9062 9.13183 14.6695 4.43962 16.5945 3.26657C18.5195 2.09351 23.2323 3.80932 27.9783 8.29143C28.2936 8.57156 28.5923 8.8692 28.9076 9.18435C27.0224 11.3345 25.2761 13.6157 23.6804 16.0126C20.9226 16.2709 18.1841 16.7213 15.4827 17.3607C15.3167 16.6254 15.184 16.0126 15.0512 15.3648ZM41.6024 22.263C41.0006 21.1685 40.3754 20.0886 39.7272 19.024C41.6854 19.2866 43.5772 19.6368 45.3362 20.057C44.8052 21.8078 44.1414 23.7162 43.3614 25.6421C42.764 24.5216 42.1666 23.401 41.5526 22.263H41.6024ZM30.7164 11.1628C31.9958 12.6317 33.2032 14.1686 34.334 15.7675C33.1226 15.7675 31.9112 15.6799 30.6832 15.6799C29.4552 15.6799 28.2604 15.6799 27.0656 15.7675C28.2936 14.1042 29.5216 12.5634 30.7164 11.1628ZM19.847 22.2805C19.2386 23.4477 18.6854 24.5683 18.1876 25.6421C17.4536 23.8014 16.8002 21.926 16.2294 20.022C17.9884 19.6193 19.8636 19.2691 21.8052 19.024C21.158 20.0745 20.5274 21.1775 19.93 22.2805H19.847ZM21.772 38.8258C19.8709 38.6111 17.982 38.2897 16.1133 37.8629C16.6609 36.0245 17.3247 34.0986 18.1046 32.1552C18.6522 33.2757 19.233 34.3962 19.7641 35.4992C20.5108 36.6373 21.1414 37.7403 21.8052 38.8258H21.772ZM30.7828 46.687C29.4749 45.196 28.2398 43.6357 27.0822 42.0123C28.2604 42.0123 29.4718 42.0998 30.6832 42.0998C31.8946 42.0998 33.1724 42.0998 34.3838 42.0123C33.2732 43.6356 32.0823 45.196 30.816 46.687H30.7828ZM43.3117 32.0501C44.0884 33.9148 44.7751 35.8198 45.3694 37.7578C43.4794 38.2029 41.5683 38.5418 39.6443 38.7733C40.2749 37.7053 40.9054 36.6198 41.5194 35.4817C42.1334 34.3437 42.7806 33.1882 43.3448 32.0501H43.3117ZM39.2958 34.1336C38.3333 35.8844 37.3376 37.6352 36.342 39.1585C34.5166 39.281 32.6414 39.3511 30.7164 39.3511C28.7915 39.3511 26.9495 39.3511 25.1573 39.176C24.0786 37.5302 23.0995 35.8844 22.1537 34.1336C21.2078 32.3828 20.3283 30.632 19.5317 28.8811C20.3283 27.1303 21.1912 25.3795 22.1371 23.6287C23.0995 21.9012 24.0952 20.2379 25.1241 18.6388C26.9495 18.4812 28.8246 18.4112 30.7164 18.4112C32.6248 18.4112 34.5 18.4112 36.3254 18.6388C37.3376 20.2145 38.3333 21.8778 39.2792 23.6111C40.2251 25.3445 41.1212 27.1128 41.9343 28.8636C41.0935 30.6028 40.214 32.3594 39.2958 34.1336ZM44.7056 3.17902C46.7633 4.43962 47.5598 9.48199 46.2655 16.1001C46.2655 16.5203 46.0829 16.958 45.9834 17.3957C43.2501 16.739 40.4781 16.2769 37.6861 16.0126C36.1041 13.6192 34.3745 11.3382 32.5086 9.18435C32.9733 8.71163 33.4379 8.25642 33.9192 7.81871C38.5324 3.65175 42.764 2.00597 44.7056 3.17902Z"/>
</mask>
<path d="M50.5137 18.7439L48.5223 18.0785C48.6385 17.6058 48.738 17.1331 48.8376 16.6604C50.3311 8.99176 49.3521 2.81135 46.0166 0.780396C42.6811 -1.25056 37.57 0.780396 32.2763 5.73523C31.7619 6.19044 31.2474 6.69818 30.7496 7.20592L29.7208 6.22546C24.1782 0.972987 18.619 -1.16302 15.2835 0.867937C11.948 2.89889 11.1349 8.62409 12.4625 15.89C12.5952 16.5903 12.7446 17.3082 12.9105 18.0435C12.1306 18.2711 11.3672 18.5338 10.6371 18.7964C4.16522 21.195 0 24.9418 0 28.8811C0 32.8205 4.46392 36.9174 11.2345 39.3861C11.7655 39.5787 12.3297 39.7537 12.8939 39.9288C12.7114 40.7167 12.5454 41.4871 12.4127 42.2399C11.1349 49.3833 12.1306 55.056 15.3333 56.9994C18.5361 58.9428 24.1616 56.9994 29.5548 51.9745L30.8326 50.7139C31.3802 51.2917 31.9444 51.8169 32.492 52.3247C37.7027 57.0519 42.8636 58.9778 46.0497 57.0169C49.2359 55.0559 50.4141 48.9281 49.0368 41.5221C48.9206 40.9443 48.8044 40.3665 48.6551 39.7713L49.8001 39.3861C56.8528 36.9349 61.4163 32.943 61.4163 28.8811C61.4163 24.8192 57.1349 21.1425 50.5137 18.7439ZM48.9704 36.7073L47.9249 37.0575C47.0779 34.2595 46.0465 31.5274 44.8383 28.8811C46.0083 26.2601 47.0063 23.5575 47.8254 20.7923C48.4559 20.9849 49.0699 21.1775 49.6507 21.3876C55.3427 23.4536 58.8109 26.5175 58.8109 28.8636C58.8109 31.2097 55.0606 34.5888 48.9704 36.7073ZM46.448 41.9598C47.0431 44.7707 47.1387 47.6736 46.7301 50.5213C46.6741 51.3017 46.467 52.0616 46.1216 52.7543C45.7762 53.4469 45.3 54.0574 44.7222 54.5482C42.7806 55.7213 38.6486 54.1805 34.1847 50.1361C33.6702 49.6634 33.1558 49.1732 32.6414 48.6479C34.4978 46.4701 36.2163 44.1657 37.7857 41.7497C40.5769 41.4969 43.3489 41.0465 46.0829 40.4015C46.2489 40.9443 46.365 41.4696 46.4646 41.9773L46.448 41.9598ZM20.9423 54.3556C20.2744 54.6903 19.5491 54.8784 18.8103 54.9085C18.0715 54.9386 17.3346 54.8101 16.6443 54.5307C14.7027 53.3401 13.8896 48.788 14.9848 42.6951C15.1065 41.9948 15.2559 41.277 15.4329 40.5416C18.1682 41.1608 20.9404 41.5819 23.7301 41.8022C25.3646 44.2135 27.1439 46.5118 29.057 48.683L27.8954 49.821C25.8595 51.7677 23.5029 53.3046 20.9423 54.3556ZM12.0808 36.6898C9.48331 35.8288 7.05867 34.4696 4.92857 32.6804C4.32154 32.2435 3.80436 31.6818 3.408 31.029C3.01165 30.3761 2.74429 29.6456 2.62193 28.8811C2.62193 26.5175 5.94083 23.5061 11.5166 21.4576C12.197 21.2125 12.9105 20.9849 13.6407 20.7573C14.4677 23.5309 15.4655 26.2446 16.6277 28.8811C15.442 31.5712 14.4329 34.344 13.6075 37.18C13.0765 37.04 12.5786 36.8649 12.0808 36.6898ZM15.0512 15.3648C13.9062 9.13183 14.6695 4.43962 16.5945 3.26657C18.5195 2.09351 23.2323 3.80932 27.9783 8.29143C28.2936 8.57156 28.5923 8.8692 28.9076 9.18435C27.0224 11.3345 25.2761 13.6157 23.6804 16.0126C20.9226 16.2709 18.1841 16.7213 15.4827 17.3607C15.3167 16.6254 15.184 16.0126 15.0512 15.3648ZM41.6024 22.263C41.0006 21.1685 40.3754 20.0886 39.7272 19.024C41.6854 19.2866 43.5772 19.6368 45.3362 20.057C44.8052 21.8078 44.1414 23.7162 43.3614 25.6421C42.764 24.5216 42.1666 23.401 41.5526 22.263H41.6024ZM30.7164 11.1628C31.9958 12.6317 33.2032 14.1686 34.334 15.7675C33.1226 15.7675 31.9112 15.6799 30.6832 15.6799C29.4552 15.6799 28.2604 15.6799 27.0656 15.7675C28.2936 14.1042 29.5216 12.5634 30.7164 11.1628ZM19.847 22.2805C19.2386 23.4477 18.6854 24.5683 18.1876 25.6421C17.4536 23.8014 16.8002 21.926 16.2294 20.022C17.9884 19.6193 19.8636 19.2691 21.8052 19.024C21.158 20.0745 20.5274 21.1775 19.93 22.2805H19.847ZM21.772 38.8258C19.8709 38.6111 17.982 38.2897 16.1133 37.8629C16.6609 36.0245 17.3247 34.0986 18.1046 32.1552C18.6522 33.2757 19.233 34.3962 19.7641 35.4992C20.5108 36.6373 21.1414 37.7403 21.8052 38.8258H21.772ZM30.7828 46.687C29.4749 45.196 28.2398 43.6357 27.0822 42.0123C28.2604 42.0123 29.4718 42.0998 30.6832 42.0998C31.8946 42.0998 33.1724 42.0998 34.3838 42.0123C33.2732 43.6356 32.0823 45.196 30.816 46.687H30.7828ZM43.3117 32.0501C44.0884 33.9148 44.7751 35.8198 45.3694 37.7578C43.4794 38.2029 41.5683 38.5418 39.6443 38.7733C40.2749 37.7053 40.9054 36.6198 41.5194 35.4817C42.1334 34.3437 42.7806 33.1882 43.3448 32.0501H43.3117ZM39.2958 34.1336C38.3333 35.8844 37.3376 37.6352 36.342 39.1585C34.5166 39.281 32.6414 39.3511 30.7164 39.3511C28.7915 39.3511 26.9495 39.3511 25.1573 39.176C24.0786 37.5302 23.0995 35.8844 22.1537 34.1336C21.2078 32.3828 20.3283 30.632 19.5317 28.8811C20.3283 27.1303 21.1912 25.3795 22.1371 23.6287C23.0995 21.9012 24.0952 20.2379 25.1241 18.6388C26.9495 18.4812 28.8246 18.4112 30.7164 18.4112C32.6248 18.4112 34.5 18.4112 36.3254 18.6388C37.3376 20.2145 38.3333 21.8778 39.2792 23.6111C40.2251 25.3445 41.1212 27.1128 41.9343 28.8636C41.0935 30.6028 40.214 32.3594 39.2958 34.1336ZM44.7056 3.17902C46.7633 4.43962 47.5598 9.48199 46.2655 16.1001C46.2655 16.5203 46.0829 16.958 45.9834 17.3957C43.2501 16.739 40.4781 16.2769 37.6861 16.0126C36.1041 13.6192 34.3745 11.3382 32.5086 9.18435C32.9733 8.71163 33.4379 8.25642 33.9192 7.81871C38.5324 3.65175 42.764 2.00597 44.7056 3.17902Z" fill="#70D9F3" stroke="#E8E5E5" stroke-width="2" mask="url(#path-2-inside-1_279_1020)"/>
</svg>
