<svg width="71" height="51" viewBox="0 0 71 51" fill="none" xmlns="http://www.w3.org/2000/svg">
<path d="M33.4815 0.0331054C30.1365 -0.140017 26.3758 0.362721 22.697 1.61518C16.8511 3.60427 10.5283 6.73281 5.9817 10.8085C0.580742 15.6593 -0.285605 19.881 0.0694101 21.6473C1.33326 27.9116 10.3418 31.9982 13.9464 35.0201C13.7689 35.1153 13.6034 35.1972 13.4472 35.283C11.639 36.1441 4.93104 39.5269 3.21277 43.1662C1.27202 47.2929 3.53387 50.2467 5.0202 50.6505C9.65669 51.8853 14.2449 49.7273 16.7939 46.0811C19.3453 42.4325 19.038 37.6708 17.8618 35.5006C17.8499 35.4681 17.8274 35.447 17.8155 35.4145C18.2818 35.1476 18.7566 34.8791 19.2347 34.6121C20.1553 34.0899 21.0537 33.6132 21.8418 33.1978C21.3968 34.3467 21.0761 35.7326 20.908 37.731C20.7092 40.0705 21.7164 43.0975 23.0252 44.2905C23.6027 44.8127 24.3002 44.8254 24.7309 44.8254C26.2622 44.8254 26.9504 43.6127 27.7125 42.1644C28.6545 40.3981 29.4876 38.3475 29.4876 38.3475C29.4876 38.3475 28.4477 43.8961 31.2996 43.8961C32.341 43.8961 33.385 42.6105 33.8513 41.9513V41.9604C33.8513 41.9604 33.8684 41.9194 33.9252 41.8335C34.0365 41.6733 34.0917 41.5796 34.0917 41.5796V41.5479C34.5129 40.8562 35.4367 39.2723 36.8236 36.6566C38.62 33.2749 40.3368 29.0499 40.3368 29.0499C40.5024 29.9783 40.7321 30.8943 41.0255 31.7925C41.3356 32.8021 41.9933 33.9092 42.514 34.9839C42.0927 35.5363 41.8345 35.8542 41.8345 35.8542C41.8345 35.8635 41.8413 35.8723 41.8484 35.8769C41.5146 36.3016 41.1363 36.7572 40.7482 37.2051C39.3281 38.8228 37.64 40.6764 37.4199 41.2079C37.1525 41.8346 37.2208 42.301 37.7296 42.6631C38.1059 42.9392 38.7765 42.9816 39.4724 42.9305C40.748 42.8446 41.6464 42.5451 42.0795 42.3548C42.8771 42.0809 43.6305 41.704 44.3168 41.2306C45.7037 40.2511 46.5491 38.8464 46.471 36.9966C46.426 35.9754 46.0787 34.9519 45.6574 33.9956C45.7804 33.8262 45.9157 33.6463 46.0364 33.4652C48.2328 30.3923 49.9286 27.0191 49.9286 27.0191C50.0943 27.9475 50.3239 28.8634 50.6174 29.7616C50.8849 30.6227 51.4059 31.5691 51.884 32.4951C49.8225 34.1013 48.5431 35.9638 48.0981 37.187C47.2768 39.4523 47.9241 40.4703 49.1336 40.7047C49.6779 40.8115 50.4513 40.5696 51.0288 40.3375C51.8856 40.0637 52.692 39.665 53.4233 39.1544C54.8102 38.1749 56.1528 36.8045 56.0628 34.9431C56.0297 34.1029 55.7884 33.262 55.4665 32.4543C57.2084 31.7534 59.4691 31.3703 62.3542 31.6882C68.5314 32.3799 69.7419 36.081 69.5099 37.6222C69.278 39.1656 67.9785 40.0278 67.5453 40.2831C67.1122 40.5384 66.9806 40.6345 67.0137 40.8271C67.0682 41.1033 67.2663 41.0916 67.6332 41.0266C68.1444 40.9407 70.8707 39.7722 70.9938 36.9105C71.1712 33.2962 67.5489 29.3207 61.1292 29.3491H61.1199C58.8912 29.3505 56.694 29.8405 54.6945 30.7861C54.0389 29.5212 53.3612 28.4143 53.2523 27.5857C53.1197 26.6179 52.9783 26.0441 53.1321 24.8976C53.2883 23.7487 53.9852 22.1192 53.9734 22.0009C53.9616 21.8848 53.8174 21.3008 52.3879 21.2891C50.9583 21.2775 49.724 21.555 49.5819 21.9147C49.3287 22.5762 49.1322 23.2539 48.9949 23.9456C48.7393 25.1896 46.1334 29.637 44.6589 31.9557C44.1713 31.0505 43.7619 30.2549 43.6743 29.6166C43.5417 28.6487 47.1089 28.7323 47.2627 27.5857C47.4189 26.4368 44.4072 24.1501 44.3954 24.0317C44.3836 23.9157 44.2394 23.3316 42.8099 23.32C41.3803 23.3084 40.1437 23.5858 39.9993 23.9456C39.855 24.3077 39.6986 25.1571 39.4123 25.9764C39.1235 26.7958 35.6523 34.2021 34.7434 36.1262C34.2772 37.1057 33.8765 37.893 33.5878 38.4245C33.5428 38.5104 33.512 38.5641 33.4907 38.6059C33.5239 38.5525 33.5462 38.4988 33.5462 38.5197C33.3024 38.977 33.1579 39.2314 33.1579 39.2314V39.2405C32.9686 39.5817 32.7581 39.8933 32.6587 39.8933C32.5924 39.8933 32.4472 38.9995 32.691 37.7763C33.2117 35.2023 34.4456 31.2019 34.4337 31.0627C34.4219 30.9884 34.6615 30.2962 33.6202 29.9248C32.6095 29.5744 32.2494 30.1606 32.1594 30.1606C32.0695 30.1606 32.0023 30.3736 32.0023 30.3736C32.0023 30.3736 33.119 25.8631 29.8481 25.8631C27.8056 25.8631 24.9647 28.0116 23.5706 29.9566C22.6949 30.4138 20.7977 31.4052 18.8001 32.4589C18.0357 32.8627 17.2505 33.277 16.5073 33.6692C16.4529 33.6159 16.407 33.564 16.3502 33.5106C12.3787 29.4465 5.0476 26.5735 5.35765 21.1169C5.46889 19.1278 6.19319 13.9082 19.4565 7.56724C30.3295 2.37752 39.0213 3.80072 40.5171 6.96886C42.6684 11.4901 35.8678 19.9053 24.5784 21.1169C20.2756 21.5741 18.2934 19.7913 17.7277 19.1948C17.1407 18.5682 17.0488 18.5348 16.8263 18.6508C16.4594 18.8412 16.6938 19.3956 16.8263 19.7252C17.16 20.5654 18.6431 21.8814 21.0051 22.6264C23.0808 23.2763 27.8468 23.8219 33.9484 21.5566C40.8025 19.0244 46.0384 12.1458 44.474 6.24355C43.4785 2.49371 39.0564 0.321642 33.4815 0.0331054ZM29.8435 28.5241C30.017 28.5366 30.1457 28.5995 30.2179 28.719C30.6061 29.348 28.8693 33.978 28.4244 35.0201C27.7143 36.6912 26.2153 40.948 25.3041 40.7229C24.5278 40.5325 24.0488 37.2867 25.147 34.0954C25.7008 32.4892 26.8779 30.5747 27.5784 29.8296C28.418 28.9279 29.3231 28.4864 29.8435 28.5241ZM52.8963 33.7735C53.0265 34.1449 53.0949 34.535 53.1044 34.9249C53.0925 37.3202 51.3082 38.2118 50.2337 38.5832C50.0113 38.4347 50.0407 37.9328 50.7838 36.3801C51.0726 35.7743 51.7414 34.753 52.8963 33.7735ZM15.6337 36.4118C16.5543 39.6449 15.6679 42.4971 13.5165 44.7438C11.4764 46.8814 8.61306 47.6904 7.38234 47.0104C6.06169 46.2746 6.58371 43.1245 9.10195 40.8453C10.6332 39.4619 12.6099 38.1869 13.9187 37.4C14.2193 37.2306 14.6481 36.9744 15.1807 36.6657C15.2706 36.6123 15.3147 36.5931 15.3147 36.5931C15.4141 36.5305 15.5224 36.4768 15.6337 36.4118ZM43.5079 36.7835C43.5079 36.8369 43.5217 36.8931 43.5217 36.9558C43.5075 38.859 41.5959 40.1442 40.7297 40.6549H40.7389V40.6594C40.4384 40.8079 40.1596 40.9014 40.0271 40.8271C39.9277 40.7737 40.1519 40.5733 40.1519 40.5733C40.1519 40.5733 41.6931 38.9855 42.3014 38.2613C42.6564 37.8366 43.0653 37.3359 43.5079 36.7835Z" fill="#CC6699"/>
</svg>
