<svg width="62" height="61" viewBox="0 0 62 61" fill="none" xmlns="http://www.w3.org/2000/svg">
<path d="M58.2456 6.45164L45.8127 0.379135C45.1106 0.0356928 44.3205 -0.0776432 43.5521 0.0548375C42.7836 0.187318 42.0748 0.559053 41.5239 1.11851L0.824702 38.761C0.330901 39.2156 0.0353135 39.8505 0.00296362 40.5262C-0.0293862 41.2018 0.204151 41.8629 0.652201 42.3638C0.706107 42.4229 0.760014 42.4798 0.818233 42.5323L4.14101 45.5948C4.5752 45.9957 5.13409 46.2296 5.72061 46.256C6.30712 46.2824 6.88422 46.0995 7.35167 45.7391L56.374 8.02664C56.7443 7.74159 57.1856 7.56705 57.6484 7.52267C58.1112 7.47829 58.5769 7.56584 58.9933 7.77545C59.4097 7.98506 59.7601 8.30842 60.0051 8.70912C60.2502 9.10982 60.3801 9.57196 60.3803 10.0435V9.89695C60.3803 9.17704 60.1799 8.47177 59.8023 7.86228C59.4246 7.25278 58.8851 6.76381 58.2456 6.45164Z" fill="#0065A9"/>
<path d="M58.2456 54.4453L45.8127 60.52C45.1104 60.8625 44.3205 60.9753 43.5523 60.8428C42.7841 60.7104 42.0753 60.3392 41.5239 59.7806L0.824702 22.1359C0.330901 21.6814 0.0353135 21.0464 0.00296362 20.3708C-0.0293862 19.6951 0.204151 19.0341 0.652201 18.5331C0.706107 18.4741 0.760014 18.4172 0.818233 18.3647L4.14101 15.3022C4.57564 14.8996 5.13581 14.6646 5.72377 14.6382C6.31174 14.6118 6.89017 14.7957 7.35814 15.1578L56.374 52.8703C56.7443 53.1554 57.1856 53.3299 57.6484 53.3743C58.1112 53.4186 58.5769 53.3311 58.9933 53.1215C59.4097 52.9119 59.7601 52.5885 60.0051 52.1878C60.2502 51.7871 60.3801 51.325 60.3803 50.8534V51.0109C60.378 51.7289 60.1766 52.4318 59.7991 53.0391C59.4216 53.6464 58.8833 54.1337 58.2456 54.4453Z" fill="#007ACC"/>
<path d="M47.2974 60.5196C46.5951 60.8621 45.8053 60.9749 45.037 60.8425C44.2688 60.71 43.56 60.3389 43.0086 59.7803C43.3183 60.0903 43.7112 60.3007 44.1383 60.3852C44.5653 60.4696 45.0074 60.4244 45.4091 60.255C45.8109 60.0857 46.1545 59.7998 46.3968 59.4332C46.6391 59.0667 46.7694 58.6357 46.7713 58.1943V2.70185C46.7716 2.25841 46.6423 1.82485 46.3995 1.45608C46.1568 1.0873 45.8117 0.799913 45.4078 0.630311C45.0039 0.460709 44.5595 0.416528 44.1309 0.503363C43.7023 0.590198 43.3087 0.804143 43 1.1181C43.551 0.558842 44.2596 0.187084 45.028 0.0542354C45.7963 -0.0786134 46.5863 0.0340114 47.2888 0.376534L59.7196 6.44028C60.361 6.75091 60.9028 7.2392 61.2824 7.84882C61.662 8.45843 61.864 9.16452 61.865 9.88559V51.0106C61.8652 51.7311 61.6647 52.437 61.2866 53.0469C60.9086 53.6569 60.3684 54.1461 59.7282 54.4581L47.2974 60.5196Z" fill="#1F9CF0"/>
</svg>
