<svg width="5" height="5" viewBox="0 0 23 5" fill="none" xmlns="http://www.w3.org/2000/svg">
<path d="M13.1842 1.28275C13.0223 0.909053 12.7611 0.631308 12.4843 0.416406C12.2357 0.200381 11.9508 0.0640337 11.6554 0.0191456C11.081 -0.0453811 10.4635 0.0746946 9.98457 0.523576C9.66715 0.832743 9.41058 1.27265 9.28505 1.76978C9.20939 2.08512 9.217 2.43188 9.27955 2.75003C9.3531 3.07322 9.47018 3.37846 9.60924 3.6607C9.73562 3.93059 9.93174 4.12473 10.1545 4.19655C10.2864 4.37666 10.4487 4.51862 10.6325 4.58202C10.6469 4.58483 10.8802 4.69144 11.0653 4.69761C11.5223 4.7021 11.988 4.56744 12.3968 4.29362C12.6998 4.09779 13.0012 3.85989 13.1982 3.48619C13.557 2.80109 13.4767 1.98188 13.1842 1.28275ZM12.6698 3.34199C12.576 3.46038 12.1635 3.81107 11.775 3.94966C11.6808 3.98277 11.7311 3.96706 11.554 4.01531C11.4014 4.04449 11.2479 4.08096 11.0932 4.07872C11.0036 4.07647 10.9161 4.05739 10.8291 4.03327C10.8456 3.90365 10.7813 3.7544 10.6486 3.76674C10.559 3.78189 10.5116 3.86157 10.5011 3.94966C10.4833 3.94686 10.466 3.94349 10.4482 3.94181C10.395 3.93732 10.3616 3.93395 10.3324 3.93227C10.3134 3.90141 10.2952 3.86999 10.2775 3.838C10.1955 3.69885 10.1308 3.54399 10.0509 3.40315C9.87891 3.07547 9.89243 3.09903 9.7762 2.73993C9.70772 2.48407 9.73308 2.62602 9.70645 2.37914C9.70181 2.13506 9.68912 2.26075 9.7259 1.98469C9.75633 1.79672 10.0061 1.24123 10.2521 1.04035C10.4419 0.859676 10.529 0.816471 10.824 0.709862C11.5895 0.516282 11.9525 0.641407 12.494 1.1767C12.7582 1.43368 12.8773 1.83375 12.9276 2.09017C12.956 2.24167 12.9686 2.39709 12.9678 2.55308C12.9484 2.80277 12.9606 2.69392 12.8938 2.92958C12.808 3.15458 12.8397 3.10857 12.6698 3.34311V3.34199Z" fill="white"/>
<path d="M22.0711 1.28275C21.9092 0.909053 21.648 0.631308 21.3711 0.416406C21.1226 0.200381 20.8377 0.0640337 20.5422 0.0191456C19.9678 -0.0453811 19.3502 0.0746946 18.8713 0.523576C18.5539 0.832743 18.2973 1.27265 18.1718 1.76978C18.0961 2.08512 18.1037 2.43188 18.1663 2.75003C18.2398 3.07322 18.3569 3.37846 18.496 3.6607C18.6224 3.93059 18.8185 4.12473 19.0412 4.19655C19.1731 4.37666 19.3354 4.51862 19.5193 4.58202C19.5337 4.58483 19.767 4.69144 19.9521 4.69761C20.4091 4.7021 20.8749 4.56744 21.2836 4.29362C21.5867 4.09779 21.8881 3.85989 22.0851 3.48619C22.4439 2.80109 22.3636 1.98188 22.0711 1.28275ZM21.5567 3.34199C21.4629 3.46038 21.0503 3.81107 20.6618 3.94966C20.5676 3.98277 20.6179 3.96706 20.4408 4.01531C20.2882 4.04449 20.1348 4.08096 19.98 4.07872C19.8904 4.07647 19.8029 4.05739 19.7159 4.03327C19.7323 3.90365 19.6681 3.7544 19.5354 3.76674C19.4458 3.78189 19.3984 3.86157 19.3879 3.94966C19.3701 3.94686 19.3528 3.94349 19.335 3.94181C19.2818 3.93732 19.2484 3.93395 19.2192 3.93227C19.2002 3.90141 19.182 3.86999 19.1643 3.838C19.0822 3.69885 19.0176 3.54399 18.9377 3.40315C18.7657 3.07547 18.7792 3.09903 18.6629 2.73993C18.5945 2.48407 18.6198 2.62602 18.5932 2.37914C18.5885 2.13506 18.5759 2.26075 18.6126 1.98469C18.6431 1.79672 18.8929 1.24123 19.1389 1.04035C19.3287 0.859676 19.4158 0.816471 19.7108 0.709862C20.4763 0.516282 20.8394 0.641407 21.3808 1.1767C21.645 1.43368 21.7642 1.83375 21.8145 2.09017C21.8429 2.24167 21.8555 2.39709 21.8547 2.55308C21.8352 2.80277 21.8475 2.69392 21.7807 2.92958C21.6949 3.15458 21.7266 3.10857 21.5567 3.34311V3.34199Z" fill="white"/>
<path d="M4.29749 1.28275C4.13561 0.909053 3.87439 0.631308 3.59754 0.416406C3.34901 0.200381 3.06413 0.0640337 2.76868 0.0191456C2.19427 -0.0453811 1.57674 0.0746946 1.09785 0.523576C0.780427 0.832743 0.523865 1.27265 0.398331 1.76978C0.322672 2.08512 0.33028 2.43188 0.392836 2.75003C0.466381 3.07322 0.583462 3.37846 0.722521 3.6607C0.8489 3.93059 1.04502 4.12473 1.26777 4.19655C1.39964 4.37666 1.56195 4.51862 1.74581 4.58202C1.76018 4.58483 1.9935 4.69144 2.17863 4.69761C2.63554 4.7021 3.10133 4.56744 3.51005 4.29362C3.81311 4.09779 4.11447 3.85989 4.31144 3.48619C4.67029 2.80109 4.58998 1.98188 4.29749 1.28275ZM3.7831 3.34199C3.68926 3.46038 3.27673 3.81107 2.8883 3.94966C2.79404 3.98277 2.84434 3.96706 2.66724 4.01531C2.51466 4.04449 2.36122 4.08096 2.20653 4.07872C2.11692 4.07647 2.02943 4.05739 1.94236 4.03327C1.95884 3.90365 1.89459 3.7544 1.76187 3.76674C1.67227 3.78189 1.62493 3.86157 1.61436 3.94966C1.59661 3.94686 1.57928 3.94349 1.56153 3.94181C1.50827 3.93732 1.47488 3.93395 1.44571 3.93227C1.42669 3.90141 1.40852 3.86999 1.39077 3.838C1.30877 3.69885 1.2441 3.54399 1.16421 3.40315C0.992186 3.07547 1.00571 3.09903 0.889477 2.73993C0.821004 2.48407 0.846364 2.62602 0.819736 2.37914C0.815086 2.13506 0.802406 2.26075 0.839179 1.98469C0.869611 1.79672 1.11941 1.24123 1.36541 1.04035C1.55519 0.859676 1.64226 0.816471 1.93728 0.709862C2.70274 0.516282 3.06582 0.641407 3.60727 1.1767C3.87144 1.43368 3.99063 1.83375 4.04093 2.09017C4.06925 2.24167 4.08193 2.39709 4.08108 2.55308C4.06164 2.80277 4.0739 2.69392 4.00711 2.92958C3.92131 3.15458 3.95301 3.10857 3.7831 3.34311V3.34199Z" fill="white"/>
</svg>
