<svg width="10" height="13" viewBox="0 0 10 13" fill="none" xmlns="http://www.w3.org/2000/svg">
<g clip-path="url(#clip0_279_917)">
<path d="M1.05647 0.810375C1.03393 0.615904 1.06649 0.39222 0.981322 0.222788C0.911809 0.0450101 0.729573 -0.0451309 0.588668 0.0224749C0.454652 0.0625375 0.352575 0.239481 0.339424 0.418929C0.339424 0.458157 0.341928 0.498219 0.342555 0.537447C0.342555 0.544125 0.342555 0.550802 0.343181 0.557479C0.346938 0.678501 0.351948 0.800359 0.356958 0.921382C0.425219 2.09655 0.322515 3.57136 0.207913 5.03615C0.0908052 5.39338 0.0187873 5.77731 0 6.16709C0 6.65953 0.0162823 7.15196 0.0225447 7.6444C0.00187873 8.16522 -0.00313121 8.6877 0.0118986 9.21019C0.0275547 9.5382 0.0175348 9.87289 0.041332 10.2009C0.0400795 10.887 0.0344433 11.5739 0.0237972 12.26C0.0325646 12.4544 0.00250498 12.6739 0.106461 12.8325C0.260517 13.0896 0.551094 13.0337 0.689493 12.7808C0.802843 12.5396 0.803469 12.2374 0.828519 11.962C0.847306 11.5897 0.856074 11.2158 0.871103 10.8436C0.947505 8.93893 1.01827 7.03428 1.07275 5.1288C1.11847 3.69072 1.13475 2.24846 1.05647 0.812044V0.810375Z" fill="white"/>
<path d="M6.09068 1.4759C6.00119 1.1179 5.59766 1.00924 5.38412 1.26925C5.09756 1.64763 5.1533 2.63044 5.20747 3.40273C5.20355 3.41049 5.19884 3.41728 5.19491 3.42504C5.09835 3.67923 5.13289 3.75879 5.14388 3.82379C5.14467 3.83058 5.14545 3.83932 5.14702 3.84999C5.14702 3.85678 5.14702 3.86357 5.14545 3.87036C5.1588 4.05082 5.16979 4.23225 5.17921 4.41271C5.17764 4.47868 5.17528 4.54368 5.17371 4.60966C5.12347 5.77099 5.08265 6.93232 5.07165 8.09462C5.06616 8.75145 5.05909 9.40828 5.05517 10.0651C5.05203 10.5046 5.04182 10.946 5.07008 11.3846C5.085 11.6 5.09207 11.8192 5.16665 12.0191C5.34172 12.542 5.89049 12.479 6.0318 11.958C6.11031 11.4059 6.13622 10.8432 6.148 10.2795C6.15271 10.2135 6.15663 10.1485 6.1637 10.0864C6.18882 9.6615 6.19039 9.23461 6.1739 8.80869C6.27439 8.47009 6.32464 8.10821 6.31129 7.74923C6.26576 6.65581 6.21708 5.5624 6.1425 4.47092C6.12758 4.15366 6.10403 3.83641 6.0844 3.51818C6.10089 3.03793 6.11659 2.55768 6.13151 2.07743C6.12052 1.87854 6.14643 1.66315 6.0899 1.47493L6.09068 1.4759Z" fill="white"/>
<path d="M10.0144 2.62691C9.86407 2.19323 9.42834 2.10701 9.23383 2.51495C9.17607 2.6179 9.14379 2.7363 9.12596 2.8637C9.09113 2.90102 9.05885 2.94735 9.03252 3.00397C8.92041 3.17899 8.9221 3.43636 8.91361 3.66672C8.91106 4.78374 8.91361 5.90076 8.88558 7.01649C8.88048 7.60589 8.8584 8.19786 8.855 8.78982C8.83547 9.36506 8.82358 9.94288 8.89238 10.5078C8.99345 11.1924 9.48949 11.5476 9.81735 10.9544C9.96345 10.697 9.94986 10.3264 9.97024 10.0059C9.97279 9.87853 9.97364 9.74984 9.97449 9.62244C9.98553 9.55552 9.99572 9.48732 10.0042 9.41911C10.0705 8.8709 10.0475 8.3111 10.0637 7.75774C10.0943 6.70892 10.107 5.66011 10.101 4.61001C10.0993 4.24453 10.0968 3.87905 10.0951 3.51358C10.101 3.21245 10.1087 2.90488 10.0144 2.6282V2.62691Z" fill="white"/>
</g>
<defs>
<clipPath id="clip0_279_917">
<rect width="10" height="13" fill="white"/>
</clipPath>
</defs>
</svg>
